%TF.GenerationSoftware,KiCad,Pcbnew,(5.99.0-2101-geb1ff80d5)*%
%TF.CreationDate,2020-11-29T13:35:49+01:00*%
%TF.ProjectId,CLK_stdln,434c4b5f-7374-4646-9c6e-2e6b69636164,rev?*%
%TF.SameCoordinates,Original*%
%TF.FileFunction,Legend,Top*%
%TF.FilePolarity,Positive*%
%FSLAX46Y46*%
G04 Gerber Fmt 4.6, Leading zero omitted, Abs format (unit mm)*
G04 Created by KiCad (PCBNEW (5.99.0-2101-geb1ff80d5)) date 2020-11-29 13:35:49*
%MOMM*%
%LPD*%
G01*
G04 APERTURE LIST*
%ADD10C,0.150000*%
%ADD11C,0.300000*%
%ADD12C,0.120000*%
G04 APERTURE END LIST*
D10*
X188340476Y-129982380D02*
X188340476Y-128982380D01*
X188721428Y-128982380D01*
X188816666Y-129030000D01*
X188864285Y-129077619D01*
X188911904Y-129172857D01*
X188911904Y-129315714D01*
X188864285Y-129410952D01*
X188816666Y-129458571D01*
X188721428Y-129506190D01*
X188340476Y-129506190D01*
X189530952Y-128982380D02*
X189721428Y-128982380D01*
X189816666Y-129030000D01*
X189911904Y-129125238D01*
X189959523Y-129315714D01*
X189959523Y-129649047D01*
X189911904Y-129839523D01*
X189816666Y-129934761D01*
X189721428Y-129982380D01*
X189530952Y-129982380D01*
X189435714Y-129934761D01*
X189340476Y-129839523D01*
X189292857Y-129649047D01*
X189292857Y-129315714D01*
X189340476Y-129125238D01*
X189435714Y-129030000D01*
X189530952Y-128982380D01*
X190292857Y-128982380D02*
X190530952Y-129982380D01*
X190721428Y-129268095D01*
X190911904Y-129982380D01*
X191150000Y-128982380D01*
X191530952Y-129458571D02*
X191864285Y-129458571D01*
X192007142Y-129982380D02*
X191530952Y-129982380D01*
X191530952Y-128982380D01*
X192007142Y-128982380D01*
X193007142Y-129982380D02*
X192673809Y-129506190D01*
X192435714Y-129982380D02*
X192435714Y-128982380D01*
X192816666Y-128982380D01*
X192911904Y-129030000D01*
X192959523Y-129077619D01*
X193007142Y-129172857D01*
X193007142Y-129315714D01*
X192959523Y-129410952D01*
X192911904Y-129458571D01*
X192816666Y-129506190D01*
X192435714Y-129506190D01*
X163994761Y-139197142D02*
X163947142Y-139244761D01*
X163804285Y-139292380D01*
X163709047Y-139292380D01*
X163566190Y-139244761D01*
X163470952Y-139149523D01*
X163423333Y-139054285D01*
X163375714Y-138863809D01*
X163375714Y-138720952D01*
X163423333Y-138530476D01*
X163470952Y-138435238D01*
X163566190Y-138340000D01*
X163709047Y-138292380D01*
X163804285Y-138292380D01*
X163947142Y-138340000D01*
X163994761Y-138387619D01*
X164899523Y-139292380D02*
X164423333Y-139292380D01*
X164423333Y-138292380D01*
X165232857Y-139292380D02*
X165232857Y-138292380D01*
X165804285Y-139292380D02*
X165375714Y-138720952D01*
X165804285Y-138292380D02*
X165232857Y-138863809D01*
D11*
X148350000Y-90604761D02*
X147397619Y-90604761D01*
X147397619Y-88604761D01*
X149778571Y-90509523D02*
X149588095Y-90604761D01*
X149207142Y-90604761D01*
X149016666Y-90509523D01*
X148921428Y-90319047D01*
X148921428Y-89557142D01*
X149016666Y-89366666D01*
X149207142Y-89271428D01*
X149588095Y-89271428D01*
X149778571Y-89366666D01*
X149873809Y-89557142D01*
X149873809Y-89747619D01*
X148921428Y-89938095D01*
X151588095Y-90604761D02*
X151588095Y-89557142D01*
X151492857Y-89366666D01*
X151302380Y-89271428D01*
X150921428Y-89271428D01*
X150730952Y-89366666D01*
X151588095Y-90509523D02*
X151397619Y-90604761D01*
X150921428Y-90604761D01*
X150730952Y-90509523D01*
X150635714Y-90319047D01*
X150635714Y-90128571D01*
X150730952Y-89938095D01*
X150921428Y-89842857D01*
X151397619Y-89842857D01*
X151588095Y-89747619D01*
X152540476Y-89271428D02*
X152540476Y-90604761D01*
X152540476Y-89461904D02*
X152635714Y-89366666D01*
X152826190Y-89271428D01*
X153111904Y-89271428D01*
X153302380Y-89366666D01*
X153397619Y-89557142D01*
X153397619Y-90604761D01*
X155207142Y-90604761D02*
X155207142Y-88604761D01*
X155207142Y-90509523D02*
X155016666Y-90604761D01*
X154635714Y-90604761D01*
X154445238Y-90509523D01*
X154350000Y-90414285D01*
X154254761Y-90223809D01*
X154254761Y-89652380D01*
X154350000Y-89461904D01*
X154445238Y-89366666D01*
X154635714Y-89271428D01*
X155016666Y-89271428D01*
X155207142Y-89366666D01*
X156159523Y-90604761D02*
X156159523Y-89271428D01*
X156159523Y-89652380D02*
X156254761Y-89461904D01*
X156350000Y-89366666D01*
X156540476Y-89271428D01*
X156730952Y-89271428D01*
X157683333Y-90604761D02*
X157492857Y-90509523D01*
X157397619Y-90414285D01*
X157302380Y-90223809D01*
X157302380Y-89652380D01*
X157397619Y-89461904D01*
X157492857Y-89366666D01*
X157683333Y-89271428D01*
X157969047Y-89271428D01*
X158159523Y-89366666D01*
X158254761Y-89461904D01*
X158350000Y-89652380D01*
X158350000Y-90223809D01*
X158254761Y-90414285D01*
X158159523Y-90509523D01*
X157969047Y-90604761D01*
X157683333Y-90604761D01*
X160730952Y-89557142D02*
X161397619Y-89557142D01*
X161683333Y-90604761D02*
X160730952Y-90604761D01*
X160730952Y-88604761D01*
X161683333Y-88604761D01*
X162540476Y-90604761D02*
X162540476Y-88604761D01*
X162540476Y-89366666D02*
X162730952Y-89271428D01*
X163111904Y-89271428D01*
X163302380Y-89366666D01*
X163397619Y-89461904D01*
X163492857Y-89652380D01*
X163492857Y-90223809D01*
X163397619Y-90414285D01*
X163302380Y-90509523D01*
X163111904Y-90604761D01*
X162730952Y-90604761D01*
X162540476Y-90509523D01*
X164350000Y-89271428D02*
X164350000Y-90604761D01*
X164350000Y-89461904D02*
X164445238Y-89366666D01*
X164635714Y-89271428D01*
X164921428Y-89271428D01*
X165111904Y-89366666D01*
X165207142Y-89557142D01*
X165207142Y-90604761D01*
X166921428Y-90509523D02*
X166730952Y-90604761D01*
X166350000Y-90604761D01*
X166159523Y-90509523D01*
X166064285Y-90319047D01*
X166064285Y-89557142D01*
X166159523Y-89366666D01*
X166350000Y-89271428D01*
X166730952Y-89271428D01*
X166921428Y-89366666D01*
X167016666Y-89557142D01*
X167016666Y-89747619D01*
X166064285Y-89938095D01*
X167873809Y-90604761D02*
X167873809Y-89271428D01*
X167873809Y-89652380D02*
X167969047Y-89461904D01*
X168064285Y-89366666D01*
X168254761Y-89271428D01*
X168445238Y-89271428D01*
X170540476Y-88795238D02*
X170635714Y-88700000D01*
X170826190Y-88604761D01*
X171302380Y-88604761D01*
X171492857Y-88700000D01*
X171588095Y-88795238D01*
X171683333Y-88985714D01*
X171683333Y-89176190D01*
X171588095Y-89461904D01*
X170445238Y-90604761D01*
X171683333Y-90604761D01*
X172921428Y-88604761D02*
X173111904Y-88604761D01*
X173302380Y-88700000D01*
X173397619Y-88795238D01*
X173492857Y-88985714D01*
X173588095Y-89366666D01*
X173588095Y-89842857D01*
X173492857Y-90223809D01*
X173397619Y-90414285D01*
X173302380Y-90509523D01*
X173111904Y-90604761D01*
X172921428Y-90604761D01*
X172730952Y-90509523D01*
X172635714Y-90414285D01*
X172540476Y-90223809D01*
X172445238Y-89842857D01*
X172445238Y-89366666D01*
X172540476Y-88985714D01*
X172635714Y-88795238D01*
X172730952Y-88700000D01*
X172921428Y-88604761D01*
X174350000Y-88795238D02*
X174445238Y-88700000D01*
X174635714Y-88604761D01*
X175111904Y-88604761D01*
X175302380Y-88700000D01*
X175397619Y-88795238D01*
X175492857Y-88985714D01*
X175492857Y-89176190D01*
X175397619Y-89461904D01*
X174254761Y-90604761D01*
X175492857Y-90604761D01*
X176730952Y-88604761D02*
X176921428Y-88604761D01*
X177111904Y-88700000D01*
X177207142Y-88795238D01*
X177302380Y-88985714D01*
X177397619Y-89366666D01*
X177397619Y-89842857D01*
X177302380Y-90223809D01*
X177207142Y-90414285D01*
X177111904Y-90509523D01*
X176921428Y-90604761D01*
X176730952Y-90604761D01*
X176540476Y-90509523D01*
X176445238Y-90414285D01*
X176350000Y-90223809D01*
X176254761Y-89842857D01*
X176254761Y-89366666D01*
X176350000Y-88985714D01*
X176445238Y-88795238D01*
X176540476Y-88700000D01*
X176730952Y-88604761D01*
X193276190Y-90294285D02*
X193180952Y-90389523D01*
X192895238Y-90484761D01*
X192704761Y-90484761D01*
X192419047Y-90389523D01*
X192228571Y-90199047D01*
X192133333Y-90008571D01*
X192038095Y-89627619D01*
X192038095Y-89341904D01*
X192133333Y-88960952D01*
X192228571Y-88770476D01*
X192419047Y-88580000D01*
X192704761Y-88484761D01*
X192895238Y-88484761D01*
X193180952Y-88580000D01*
X193276190Y-88675238D01*
X195085714Y-90484761D02*
X194133333Y-90484761D01*
X194133333Y-88484761D01*
X195752380Y-90484761D02*
X195752380Y-88484761D01*
X196895238Y-90484761D02*
X196038095Y-89341904D01*
X196895238Y-88484761D02*
X195752380Y-89627619D01*
X199180952Y-90389523D02*
X199466666Y-90484761D01*
X199942857Y-90484761D01*
X200133333Y-90389523D01*
X200228571Y-90294285D01*
X200323809Y-90103809D01*
X200323809Y-89913333D01*
X200228571Y-89722857D01*
X200133333Y-89627619D01*
X199942857Y-89532380D01*
X199561904Y-89437142D01*
X199371428Y-89341904D01*
X199276190Y-89246666D01*
X199180952Y-89056190D01*
X199180952Y-88865714D01*
X199276190Y-88675238D01*
X199371428Y-88580000D01*
X199561904Y-88484761D01*
X200038095Y-88484761D01*
X200323809Y-88580000D01*
X200895238Y-88484761D02*
X202038095Y-88484761D01*
X201466666Y-90484761D02*
X201466666Y-88484761D01*
X202704761Y-90484761D02*
X202704761Y-88484761D01*
X203180952Y-88484761D01*
X203466666Y-88580000D01*
X203657142Y-88770476D01*
X203752380Y-88960952D01*
X203847619Y-89341904D01*
X203847619Y-89627619D01*
X203752380Y-90008571D01*
X203657142Y-90199047D01*
X203466666Y-90389523D01*
X203180952Y-90484761D01*
X202704761Y-90484761D01*
X205657142Y-90484761D02*
X204704761Y-90484761D01*
X204704761Y-88484761D01*
X206323809Y-90484761D02*
X206323809Y-88484761D01*
X207466666Y-90484761D01*
X207466666Y-88484761D01*
D10*
%TO.C,R287*%
X187230952Y-142452380D02*
X186897619Y-141976190D01*
X186659523Y-142452380D02*
X186659523Y-141452380D01*
X187040476Y-141452380D01*
X187135714Y-141500000D01*
X187183333Y-141547619D01*
X187230952Y-141642857D01*
X187230952Y-141785714D01*
X187183333Y-141880952D01*
X187135714Y-141928571D01*
X187040476Y-141976190D01*
X186659523Y-141976190D01*
X187611904Y-141547619D02*
X187659523Y-141500000D01*
X187754761Y-141452380D01*
X187992857Y-141452380D01*
X188088095Y-141500000D01*
X188135714Y-141547619D01*
X188183333Y-141642857D01*
X188183333Y-141738095D01*
X188135714Y-141880952D01*
X187564285Y-142452380D01*
X188183333Y-142452380D01*
X188754761Y-141880952D02*
X188659523Y-141833333D01*
X188611904Y-141785714D01*
X188564285Y-141690476D01*
X188564285Y-141642857D01*
X188611904Y-141547619D01*
X188659523Y-141500000D01*
X188754761Y-141452380D01*
X188945238Y-141452380D01*
X189040476Y-141500000D01*
X189088095Y-141547619D01*
X189135714Y-141642857D01*
X189135714Y-141690476D01*
X189088095Y-141785714D01*
X189040476Y-141833333D01*
X188945238Y-141880952D01*
X188754761Y-141880952D01*
X188659523Y-141928571D01*
X188611904Y-141976190D01*
X188564285Y-142071428D01*
X188564285Y-142261904D01*
X188611904Y-142357142D01*
X188659523Y-142404761D01*
X188754761Y-142452380D01*
X188945238Y-142452380D01*
X189040476Y-142404761D01*
X189088095Y-142357142D01*
X189135714Y-142261904D01*
X189135714Y-142071428D01*
X189088095Y-141976190D01*
X189040476Y-141928571D01*
X188945238Y-141880952D01*
X189469047Y-141452380D02*
X190135714Y-141452380D01*
X189707142Y-142452380D01*
%TO.C,R12*%
X187192380Y-113152857D02*
X186716190Y-113486190D01*
X187192380Y-113724285D02*
X186192380Y-113724285D01*
X186192380Y-113343333D01*
X186240000Y-113248095D01*
X186287619Y-113200476D01*
X186382857Y-113152857D01*
X186525714Y-113152857D01*
X186620952Y-113200476D01*
X186668571Y-113248095D01*
X186716190Y-113343333D01*
X186716190Y-113724285D01*
X187192380Y-112200476D02*
X187192380Y-112771904D01*
X187192380Y-112486190D02*
X186192380Y-112486190D01*
X186335238Y-112581428D01*
X186430476Y-112676666D01*
X186478095Y-112771904D01*
X186287619Y-111819523D02*
X186240000Y-111771904D01*
X186192380Y-111676666D01*
X186192380Y-111438571D01*
X186240000Y-111343333D01*
X186287619Y-111295714D01*
X186382857Y-111248095D01*
X186478095Y-111248095D01*
X186620952Y-111295714D01*
X187192380Y-111867142D01*
X187192380Y-111248095D01*
%TO.C,R11*%
X184379142Y-110378380D02*
X184045809Y-109902190D01*
X183807714Y-110378380D02*
X183807714Y-109378380D01*
X184188666Y-109378380D01*
X184283904Y-109426000D01*
X184331523Y-109473619D01*
X184379142Y-109568857D01*
X184379142Y-109711714D01*
X184331523Y-109806952D01*
X184283904Y-109854571D01*
X184188666Y-109902190D01*
X183807714Y-109902190D01*
X185331523Y-110378380D02*
X184760095Y-110378380D01*
X185045809Y-110378380D02*
X185045809Y-109378380D01*
X184950571Y-109521238D01*
X184855333Y-109616476D01*
X184760095Y-109664095D01*
X186283904Y-110378380D02*
X185712476Y-110378380D01*
X185998190Y-110378380D02*
X185998190Y-109378380D01*
X185902952Y-109521238D01*
X185807714Y-109616476D01*
X185712476Y-109664095D01*
%TO.C,R10*%
X180528380Y-113118857D02*
X180052190Y-113452190D01*
X180528380Y-113690285D02*
X179528380Y-113690285D01*
X179528380Y-113309333D01*
X179576000Y-113214095D01*
X179623619Y-113166476D01*
X179718857Y-113118857D01*
X179861714Y-113118857D01*
X179956952Y-113166476D01*
X180004571Y-113214095D01*
X180052190Y-113309333D01*
X180052190Y-113690285D01*
X180528380Y-112166476D02*
X180528380Y-112737904D01*
X180528380Y-112452190D02*
X179528380Y-112452190D01*
X179671238Y-112547428D01*
X179766476Y-112642666D01*
X179814095Y-112737904D01*
X179528380Y-111547428D02*
X179528380Y-111452190D01*
X179576000Y-111356952D01*
X179623619Y-111309333D01*
X179718857Y-111261714D01*
X179909333Y-111214095D01*
X180147428Y-111214095D01*
X180337904Y-111261714D01*
X180433142Y-111309333D01*
X180480761Y-111356952D01*
X180528380Y-111452190D01*
X180528380Y-111547428D01*
X180480761Y-111642666D01*
X180433142Y-111690285D01*
X180337904Y-111737904D01*
X180147428Y-111785523D01*
X179909333Y-111785523D01*
X179718857Y-111737904D01*
X179623619Y-111690285D01*
X179576000Y-111642666D01*
X179528380Y-111547428D01*
%TO.C,R9*%
X179273333Y-105942380D02*
X178940000Y-105466190D01*
X178701904Y-105942380D02*
X178701904Y-104942380D01*
X179082857Y-104942380D01*
X179178095Y-104990000D01*
X179225714Y-105037619D01*
X179273333Y-105132857D01*
X179273333Y-105275714D01*
X179225714Y-105370952D01*
X179178095Y-105418571D01*
X179082857Y-105466190D01*
X178701904Y-105466190D01*
X179749523Y-105942380D02*
X179940000Y-105942380D01*
X180035238Y-105894761D01*
X180082857Y-105847142D01*
X180178095Y-105704285D01*
X180225714Y-105513809D01*
X180225714Y-105132857D01*
X180178095Y-105037619D01*
X180130476Y-104990000D01*
X180035238Y-104942380D01*
X179844761Y-104942380D01*
X179749523Y-104990000D01*
X179701904Y-105037619D01*
X179654285Y-105132857D01*
X179654285Y-105370952D01*
X179701904Y-105466190D01*
X179749523Y-105513809D01*
X179844761Y-105561428D01*
X180035238Y-105561428D01*
X180130476Y-105513809D01*
X180178095Y-105466190D01*
X180225714Y-105370952D01*
%TO.C,R8*%
X180974880Y-130946666D02*
X180498690Y-131280000D01*
X180974880Y-131518095D02*
X179974880Y-131518095D01*
X179974880Y-131137142D01*
X180022500Y-131041904D01*
X180070119Y-130994285D01*
X180165357Y-130946666D01*
X180308214Y-130946666D01*
X180403452Y-130994285D01*
X180451071Y-131041904D01*
X180498690Y-131137142D01*
X180498690Y-131518095D01*
X180403452Y-130375238D02*
X180355833Y-130470476D01*
X180308214Y-130518095D01*
X180212976Y-130565714D01*
X180165357Y-130565714D01*
X180070119Y-130518095D01*
X180022500Y-130470476D01*
X179974880Y-130375238D01*
X179974880Y-130184761D01*
X180022500Y-130089523D01*
X180070119Y-130041904D01*
X180165357Y-129994285D01*
X180212976Y-129994285D01*
X180308214Y-130041904D01*
X180355833Y-130089523D01*
X180403452Y-130184761D01*
X180403452Y-130375238D01*
X180451071Y-130470476D01*
X180498690Y-130518095D01*
X180593928Y-130565714D01*
X180784404Y-130565714D01*
X180879642Y-130518095D01*
X180927261Y-130470476D01*
X180974880Y-130375238D01*
X180974880Y-130184761D01*
X180927261Y-130089523D01*
X180879642Y-130041904D01*
X180784404Y-129994285D01*
X180593928Y-129994285D01*
X180498690Y-130041904D01*
X180451071Y-130089523D01*
X180403452Y-130184761D01*
%TO.C,R7*%
X171962380Y-106672666D02*
X171486190Y-107006000D01*
X171962380Y-107244095D02*
X170962380Y-107244095D01*
X170962380Y-106863142D01*
X171010000Y-106767904D01*
X171057619Y-106720285D01*
X171152857Y-106672666D01*
X171295714Y-106672666D01*
X171390952Y-106720285D01*
X171438571Y-106767904D01*
X171486190Y-106863142D01*
X171486190Y-107244095D01*
X170962380Y-106339333D02*
X170962380Y-105672666D01*
X171962380Y-106101238D01*
%TO.C,R6*%
X176184880Y-130946666D02*
X175708690Y-131280000D01*
X176184880Y-131518095D02*
X175184880Y-131518095D01*
X175184880Y-131137142D01*
X175232500Y-131041904D01*
X175280119Y-130994285D01*
X175375357Y-130946666D01*
X175518214Y-130946666D01*
X175613452Y-130994285D01*
X175661071Y-131041904D01*
X175708690Y-131137142D01*
X175708690Y-131518095D01*
X175184880Y-130089523D02*
X175184880Y-130280000D01*
X175232500Y-130375238D01*
X175280119Y-130422857D01*
X175422976Y-130518095D01*
X175613452Y-130565714D01*
X175994404Y-130565714D01*
X176089642Y-130518095D01*
X176137261Y-130470476D01*
X176184880Y-130375238D01*
X176184880Y-130184761D01*
X176137261Y-130089523D01*
X176089642Y-130041904D01*
X175994404Y-129994285D01*
X175756309Y-129994285D01*
X175661071Y-130041904D01*
X175613452Y-130089523D01*
X175565833Y-130184761D01*
X175565833Y-130375238D01*
X175613452Y-130470476D01*
X175661071Y-130518095D01*
X175756309Y-130565714D01*
%TO.C,R5*%
X164303333Y-133422380D02*
X163970000Y-132946190D01*
X163731904Y-133422380D02*
X163731904Y-132422380D01*
X164112857Y-132422380D01*
X164208095Y-132470000D01*
X164255714Y-132517619D01*
X164303333Y-132612857D01*
X164303333Y-132755714D01*
X164255714Y-132850952D01*
X164208095Y-132898571D01*
X164112857Y-132946190D01*
X163731904Y-132946190D01*
X165208095Y-132422380D02*
X164731904Y-132422380D01*
X164684285Y-132898571D01*
X164731904Y-132850952D01*
X164827142Y-132803333D01*
X165065238Y-132803333D01*
X165160476Y-132850952D01*
X165208095Y-132898571D01*
X165255714Y-132993809D01*
X165255714Y-133231904D01*
X165208095Y-133327142D01*
X165160476Y-133374761D01*
X165065238Y-133422380D01*
X164827142Y-133422380D01*
X164731904Y-133374761D01*
X164684285Y-133327142D01*
%TO.C,R4*%
X201019619Y-128382333D02*
X201495809Y-128049000D01*
X201019619Y-127810904D02*
X202019619Y-127810904D01*
X202019619Y-128191857D01*
X201972000Y-128287095D01*
X201924380Y-128334714D01*
X201829142Y-128382333D01*
X201686285Y-128382333D01*
X201591047Y-128334714D01*
X201543428Y-128287095D01*
X201495809Y-128191857D01*
X201495809Y-127810904D01*
X201686285Y-129239476D02*
X201019619Y-129239476D01*
X202067238Y-129001380D02*
X201352952Y-128763285D01*
X201352952Y-129382333D01*
%TO.C,R3*%
X197719619Y-128382333D02*
X198195809Y-128049000D01*
X197719619Y-127810904D02*
X198719619Y-127810904D01*
X198719619Y-128191857D01*
X198672000Y-128287095D01*
X198624380Y-128334714D01*
X198529142Y-128382333D01*
X198386285Y-128382333D01*
X198291047Y-128334714D01*
X198243428Y-128287095D01*
X198195809Y-128191857D01*
X198195809Y-127810904D01*
X198719619Y-128715666D02*
X198719619Y-129334714D01*
X198338666Y-129001380D01*
X198338666Y-129144238D01*
X198291047Y-129239476D01*
X198243428Y-129287095D01*
X198148190Y-129334714D01*
X197910095Y-129334714D01*
X197814857Y-129287095D01*
X197767238Y-129239476D01*
X197719619Y-129144238D01*
X197719619Y-128858523D01*
X197767238Y-128763285D01*
X197814857Y-128715666D01*
%TO.C,R2*%
X199500833Y-109952380D02*
X199167500Y-109476190D01*
X198929404Y-109952380D02*
X198929404Y-108952380D01*
X199310357Y-108952380D01*
X199405595Y-109000000D01*
X199453214Y-109047619D01*
X199500833Y-109142857D01*
X199500833Y-109285714D01*
X199453214Y-109380952D01*
X199405595Y-109428571D01*
X199310357Y-109476190D01*
X198929404Y-109476190D01*
X199881785Y-109047619D02*
X199929404Y-109000000D01*
X200024642Y-108952380D01*
X200262738Y-108952380D01*
X200357976Y-109000000D01*
X200405595Y-109047619D01*
X200453214Y-109142857D01*
X200453214Y-109238095D01*
X200405595Y-109380952D01*
X199834166Y-109952380D01*
X200453214Y-109952380D01*
%TO.C,R1*%
X203795333Y-93290380D02*
X203462000Y-92814190D01*
X203223904Y-93290380D02*
X203223904Y-92290380D01*
X203604857Y-92290380D01*
X203700095Y-92338000D01*
X203747714Y-92385619D01*
X203795333Y-92480857D01*
X203795333Y-92623714D01*
X203747714Y-92718952D01*
X203700095Y-92766571D01*
X203604857Y-92814190D01*
X203223904Y-92814190D01*
X204747714Y-93290380D02*
X204176285Y-93290380D01*
X204462000Y-93290380D02*
X204462000Y-92290380D01*
X204366761Y-92433238D01*
X204271523Y-92528476D01*
X204176285Y-92576095D01*
%TO.C,C17*%
X187697142Y-141457142D02*
X187649523Y-141504761D01*
X187506666Y-141552380D01*
X187411428Y-141552380D01*
X187268571Y-141504761D01*
X187173333Y-141409523D01*
X187125714Y-141314285D01*
X187078095Y-141123809D01*
X187078095Y-140980952D01*
X187125714Y-140790476D01*
X187173333Y-140695238D01*
X187268571Y-140600000D01*
X187411428Y-140552380D01*
X187506666Y-140552380D01*
X187649523Y-140600000D01*
X187697142Y-140647619D01*
X188649523Y-141552380D02*
X188078095Y-141552380D01*
X188363809Y-141552380D02*
X188363809Y-140552380D01*
X188268571Y-140695238D01*
X188173333Y-140790476D01*
X188078095Y-140838095D01*
X188982857Y-140552380D02*
X189649523Y-140552380D01*
X189220952Y-141552380D01*
%TO.C,C10*%
X184779642Y-118227142D02*
X184732023Y-118274761D01*
X184589166Y-118322380D01*
X184493928Y-118322380D01*
X184351071Y-118274761D01*
X184255833Y-118179523D01*
X184208214Y-118084285D01*
X184160595Y-117893809D01*
X184160595Y-117750952D01*
X184208214Y-117560476D01*
X184255833Y-117465238D01*
X184351071Y-117370000D01*
X184493928Y-117322380D01*
X184589166Y-117322380D01*
X184732023Y-117370000D01*
X184779642Y-117417619D01*
X185732023Y-118322380D02*
X185160595Y-118322380D01*
X185446309Y-118322380D02*
X185446309Y-117322380D01*
X185351071Y-117465238D01*
X185255833Y-117560476D01*
X185160595Y-117608095D01*
X186351071Y-117322380D02*
X186446309Y-117322380D01*
X186541547Y-117370000D01*
X186589166Y-117417619D01*
X186636785Y-117512857D01*
X186684404Y-117703333D01*
X186684404Y-117941428D01*
X186636785Y-118131904D01*
X186589166Y-118227142D01*
X186541547Y-118274761D01*
X186446309Y-118322380D01*
X186351071Y-118322380D01*
X186255833Y-118274761D01*
X186208214Y-118227142D01*
X186160595Y-118131904D01*
X186112976Y-117941428D01*
X186112976Y-117703333D01*
X186160595Y-117512857D01*
X186208214Y-117417619D01*
X186255833Y-117370000D01*
X186351071Y-117322380D01*
%TO.C,C9*%
X187125357Y-130613333D02*
X187077738Y-130565714D01*
X187030119Y-130422857D01*
X187030119Y-130327619D01*
X187077738Y-130184761D01*
X187172976Y-130089523D01*
X187268214Y-130041904D01*
X187458690Y-129994285D01*
X187601547Y-129994285D01*
X187792023Y-130041904D01*
X187887261Y-130089523D01*
X187982500Y-130184761D01*
X188030119Y-130327619D01*
X188030119Y-130422857D01*
X187982500Y-130565714D01*
X187934880Y-130613333D01*
X187030119Y-131089523D02*
X187030119Y-131280000D01*
X187077738Y-131375238D01*
X187125357Y-131422857D01*
X187268214Y-131518095D01*
X187458690Y-131565714D01*
X187839642Y-131565714D01*
X187934880Y-131518095D01*
X187982500Y-131470476D01*
X188030119Y-131375238D01*
X188030119Y-131184761D01*
X187982500Y-131089523D01*
X187934880Y-131041904D01*
X187839642Y-130994285D01*
X187601547Y-130994285D01*
X187506309Y-131041904D01*
X187458690Y-131089523D01*
X187411071Y-131184761D01*
X187411071Y-131375238D01*
X187458690Y-131470476D01*
X187506309Y-131518095D01*
X187601547Y-131565714D01*
%TO.C,C8*%
X203578333Y-113157142D02*
X203530714Y-113204761D01*
X203387857Y-113252380D01*
X203292619Y-113252380D01*
X203149761Y-113204761D01*
X203054523Y-113109523D01*
X203006904Y-113014285D01*
X202959285Y-112823809D01*
X202959285Y-112680952D01*
X203006904Y-112490476D01*
X203054523Y-112395238D01*
X203149761Y-112300000D01*
X203292619Y-112252380D01*
X203387857Y-112252380D01*
X203530714Y-112300000D01*
X203578333Y-112347619D01*
X204149761Y-112680952D02*
X204054523Y-112633333D01*
X204006904Y-112585714D01*
X203959285Y-112490476D01*
X203959285Y-112442857D01*
X204006904Y-112347619D01*
X204054523Y-112300000D01*
X204149761Y-112252380D01*
X204340238Y-112252380D01*
X204435476Y-112300000D01*
X204483095Y-112347619D01*
X204530714Y-112442857D01*
X204530714Y-112490476D01*
X204483095Y-112585714D01*
X204435476Y-112633333D01*
X204340238Y-112680952D01*
X204149761Y-112680952D01*
X204054523Y-112728571D01*
X204006904Y-112776190D01*
X203959285Y-112871428D01*
X203959285Y-113061904D01*
X204006904Y-113157142D01*
X204054523Y-113204761D01*
X204149761Y-113252380D01*
X204340238Y-113252380D01*
X204435476Y-113204761D01*
X204483095Y-113157142D01*
X204530714Y-113061904D01*
X204530714Y-112871428D01*
X204483095Y-112776190D01*
X204435476Y-112728571D01*
X204340238Y-112680952D01*
%TO.C,C7*%
X201829142Y-128715666D02*
X201876761Y-128763285D01*
X201924380Y-128906142D01*
X201924380Y-129001380D01*
X201876761Y-129144238D01*
X201781523Y-129239476D01*
X201686285Y-129287095D01*
X201495809Y-129334714D01*
X201352952Y-129334714D01*
X201162476Y-129287095D01*
X201067238Y-129239476D01*
X200972000Y-129144238D01*
X200924380Y-129001380D01*
X200924380Y-128906142D01*
X200972000Y-128763285D01*
X201019619Y-128715666D01*
X200924380Y-128382333D02*
X200924380Y-127715666D01*
X201924380Y-128144238D01*
%TO.C,C6*%
X203795333Y-95805142D02*
X203747714Y-95852761D01*
X203604857Y-95900380D01*
X203509619Y-95900380D01*
X203366761Y-95852761D01*
X203271523Y-95757523D01*
X203223904Y-95662285D01*
X203176285Y-95471809D01*
X203176285Y-95328952D01*
X203223904Y-95138476D01*
X203271523Y-95043238D01*
X203366761Y-94948000D01*
X203509619Y-94900380D01*
X203604857Y-94900380D01*
X203747714Y-94948000D01*
X203795333Y-94995619D01*
X204652476Y-94900380D02*
X204462000Y-94900380D01*
X204366761Y-94948000D01*
X204319142Y-94995619D01*
X204223904Y-95138476D01*
X204176285Y-95328952D01*
X204176285Y-95709904D01*
X204223904Y-95805142D01*
X204271523Y-95852761D01*
X204366761Y-95900380D01*
X204557238Y-95900380D01*
X204652476Y-95852761D01*
X204700095Y-95805142D01*
X204747714Y-95709904D01*
X204747714Y-95471809D01*
X204700095Y-95376571D01*
X204652476Y-95328952D01*
X204557238Y-95281333D01*
X204366761Y-95281333D01*
X204271523Y-95328952D01*
X204223904Y-95376571D01*
X204176285Y-95471809D01*
%TO.C,C5*%
X171537142Y-96136666D02*
X171584761Y-96184285D01*
X171632380Y-96327142D01*
X171632380Y-96422380D01*
X171584761Y-96565238D01*
X171489523Y-96660476D01*
X171394285Y-96708095D01*
X171203809Y-96755714D01*
X171060952Y-96755714D01*
X170870476Y-96708095D01*
X170775238Y-96660476D01*
X170680000Y-96565238D01*
X170632380Y-96422380D01*
X170632380Y-96327142D01*
X170680000Y-96184285D01*
X170727619Y-96136666D01*
X170632380Y-95231904D02*
X170632380Y-95708095D01*
X171108571Y-95755714D01*
X171060952Y-95708095D01*
X171013333Y-95612857D01*
X171013333Y-95374761D01*
X171060952Y-95279523D01*
X171108571Y-95231904D01*
X171203809Y-95184285D01*
X171441904Y-95184285D01*
X171537142Y-95231904D01*
X171584761Y-95279523D01*
X171632380Y-95374761D01*
X171632380Y-95612857D01*
X171584761Y-95708095D01*
X171537142Y-95755714D01*
%TO.C,C4*%
X174592857Y-114573333D02*
X174545238Y-114525714D01*
X174497619Y-114382857D01*
X174497619Y-114287619D01*
X174545238Y-114144761D01*
X174640476Y-114049523D01*
X174735714Y-114001904D01*
X174926190Y-113954285D01*
X175069047Y-113954285D01*
X175259523Y-114001904D01*
X175354761Y-114049523D01*
X175450000Y-114144761D01*
X175497619Y-114287619D01*
X175497619Y-114382857D01*
X175450000Y-114525714D01*
X175402380Y-114573333D01*
X175164285Y-115430476D02*
X174497619Y-115430476D01*
X175545238Y-115192380D02*
X174830952Y-114954285D01*
X174830952Y-115573333D01*
%TO.C,C3*%
X202400333Y-144711142D02*
X202352714Y-144758761D01*
X202209857Y-144806380D01*
X202114619Y-144806380D01*
X201971761Y-144758761D01*
X201876523Y-144663523D01*
X201828904Y-144568285D01*
X201781285Y-144377809D01*
X201781285Y-144234952D01*
X201828904Y-144044476D01*
X201876523Y-143949238D01*
X201971761Y-143854000D01*
X202114619Y-143806380D01*
X202209857Y-143806380D01*
X202352714Y-143854000D01*
X202400333Y-143901619D01*
X202733666Y-143806380D02*
X203352714Y-143806380D01*
X203019380Y-144187333D01*
X203162238Y-144187333D01*
X203257476Y-144234952D01*
X203305095Y-144282571D01*
X203352714Y-144377809D01*
X203352714Y-144615904D01*
X203305095Y-144711142D01*
X203257476Y-144758761D01*
X203162238Y-144806380D01*
X202876523Y-144806380D01*
X202781285Y-144758761D01*
X202733666Y-144711142D01*
%TO.C,C2*%
X195670333Y-141291142D02*
X195622714Y-141338761D01*
X195479857Y-141386380D01*
X195384619Y-141386380D01*
X195241761Y-141338761D01*
X195146523Y-141243523D01*
X195098904Y-141148285D01*
X195051285Y-140957809D01*
X195051285Y-140814952D01*
X195098904Y-140624476D01*
X195146523Y-140529238D01*
X195241761Y-140434000D01*
X195384619Y-140386380D01*
X195479857Y-140386380D01*
X195622714Y-140434000D01*
X195670333Y-140481619D01*
X196051285Y-140481619D02*
X196098904Y-140434000D01*
X196194142Y-140386380D01*
X196432238Y-140386380D01*
X196527476Y-140434000D01*
X196575095Y-140481619D01*
X196622714Y-140576857D01*
X196622714Y-140672095D01*
X196575095Y-140814952D01*
X196003666Y-141386380D01*
X196622714Y-141386380D01*
%TO.C,C1*%
X195423333Y-113157142D02*
X195375714Y-113204761D01*
X195232857Y-113252380D01*
X195137619Y-113252380D01*
X194994761Y-113204761D01*
X194899523Y-113109523D01*
X194851904Y-113014285D01*
X194804285Y-112823809D01*
X194804285Y-112680952D01*
X194851904Y-112490476D01*
X194899523Y-112395238D01*
X194994761Y-112300000D01*
X195137619Y-112252380D01*
X195232857Y-112252380D01*
X195375714Y-112300000D01*
X195423333Y-112347619D01*
X196375714Y-113252380D02*
X195804285Y-113252380D01*
X196090000Y-113252380D02*
X196090000Y-112252380D01*
X195994761Y-112395238D01*
X195899523Y-112490476D01*
X195804285Y-112538095D01*
%TO.C,U3*%
X201168095Y-98192380D02*
X201168095Y-99001904D01*
X201215714Y-99097142D01*
X201263333Y-99144761D01*
X201358571Y-99192380D01*
X201549047Y-99192380D01*
X201644285Y-99144761D01*
X201691904Y-99097142D01*
X201739523Y-99001904D01*
X201739523Y-98192380D01*
X202120476Y-98192380D02*
X202739523Y-98192380D01*
X202406190Y-98573333D01*
X202549047Y-98573333D01*
X202644285Y-98620952D01*
X202691904Y-98668571D01*
X202739523Y-98763809D01*
X202739523Y-99001904D01*
X202691904Y-99097142D01*
X202644285Y-99144761D01*
X202549047Y-99192380D01*
X202263333Y-99192380D01*
X202168095Y-99144761D01*
X202120476Y-99097142D01*
%TO.C,SW2*%
X178936666Y-140084761D02*
X179079523Y-140132380D01*
X179317619Y-140132380D01*
X179412857Y-140084761D01*
X179460476Y-140037142D01*
X179508095Y-139941904D01*
X179508095Y-139846666D01*
X179460476Y-139751428D01*
X179412857Y-139703809D01*
X179317619Y-139656190D01*
X179127142Y-139608571D01*
X179031904Y-139560952D01*
X178984285Y-139513333D01*
X178936666Y-139418095D01*
X178936666Y-139322857D01*
X178984285Y-139227619D01*
X179031904Y-139180000D01*
X179127142Y-139132380D01*
X179365238Y-139132380D01*
X179508095Y-139180000D01*
X179841428Y-139132380D02*
X180079523Y-140132380D01*
X180270000Y-139418095D01*
X180460476Y-140132380D01*
X180698571Y-139132380D01*
X181031904Y-139227619D02*
X181079523Y-139180000D01*
X181174761Y-139132380D01*
X181412857Y-139132380D01*
X181508095Y-139180000D01*
X181555714Y-139227619D01*
X181603333Y-139322857D01*
X181603333Y-139418095D01*
X181555714Y-139560952D01*
X180984285Y-140132380D01*
X181603333Y-140132380D01*
%TO.C,J2*%
X178090666Y-92530380D02*
X178090666Y-93244666D01*
X178043047Y-93387523D01*
X177947809Y-93482761D01*
X177804952Y-93530380D01*
X177709714Y-93530380D01*
X178519238Y-92625619D02*
X178566857Y-92578000D01*
X178662095Y-92530380D01*
X178900190Y-92530380D01*
X178995428Y-92578000D01*
X179043047Y-92625619D01*
X179090666Y-92720857D01*
X179090666Y-92816095D01*
X179043047Y-92958952D01*
X178471619Y-93530380D01*
X179090666Y-93530380D01*
%TO.C,U1*%
X165138095Y-112642380D02*
X165138095Y-113451904D01*
X165185714Y-113547142D01*
X165233333Y-113594761D01*
X165328571Y-113642380D01*
X165519047Y-113642380D01*
X165614285Y-113594761D01*
X165661904Y-113547142D01*
X165709523Y-113451904D01*
X165709523Y-112642380D01*
X166709523Y-113642380D02*
X166138095Y-113642380D01*
X166423809Y-113642380D02*
X166423809Y-112642380D01*
X166328571Y-112785238D01*
X166233333Y-112880476D01*
X166138095Y-112928095D01*
%TO.C,U2*%
X165068095Y-92380380D02*
X165068095Y-93189904D01*
X165115714Y-93285142D01*
X165163333Y-93332761D01*
X165258571Y-93380380D01*
X165449047Y-93380380D01*
X165544285Y-93332761D01*
X165591904Y-93285142D01*
X165639523Y-93189904D01*
X165639523Y-92380380D01*
X166068095Y-92475619D02*
X166115714Y-92428000D01*
X166210952Y-92380380D01*
X166449047Y-92380380D01*
X166544285Y-92428000D01*
X166591904Y-92475619D01*
X166639523Y-92570857D01*
X166639523Y-92666095D01*
X166591904Y-92808952D01*
X166020476Y-93380380D01*
X166639523Y-93380380D01*
%TO.C,U4*%
X199110095Y-129446380D02*
X199110095Y-130255904D01*
X199157714Y-130351142D01*
X199205333Y-130398761D01*
X199300571Y-130446380D01*
X199491047Y-130446380D01*
X199586285Y-130398761D01*
X199633904Y-130351142D01*
X199681523Y-130255904D01*
X199681523Y-129446380D01*
X200586285Y-129779714D02*
X200586285Y-130446380D01*
X200348190Y-129398761D02*
X200110095Y-130113047D01*
X200729142Y-130113047D01*
%TO.C,U5*%
X180300595Y-116752380D02*
X180300595Y-117561904D01*
X180348214Y-117657142D01*
X180395833Y-117704761D01*
X180491071Y-117752380D01*
X180681547Y-117752380D01*
X180776785Y-117704761D01*
X180824404Y-117657142D01*
X180872023Y-117561904D01*
X180872023Y-116752380D01*
X181824404Y-116752380D02*
X181348214Y-116752380D01*
X181300595Y-117228571D01*
X181348214Y-117180952D01*
X181443452Y-117133333D01*
X181681547Y-117133333D01*
X181776785Y-117180952D01*
X181824404Y-117228571D01*
X181872023Y-117323809D01*
X181872023Y-117561904D01*
X181824404Y-117657142D01*
X181776785Y-117704761D01*
X181681547Y-117752380D01*
X181443452Y-117752380D01*
X181348214Y-117704761D01*
X181300595Y-117657142D01*
%TO.C,SW3*%
X189506666Y-93464761D02*
X189649523Y-93512380D01*
X189887619Y-93512380D01*
X189982857Y-93464761D01*
X190030476Y-93417142D01*
X190078095Y-93321904D01*
X190078095Y-93226666D01*
X190030476Y-93131428D01*
X189982857Y-93083809D01*
X189887619Y-93036190D01*
X189697142Y-92988571D01*
X189601904Y-92940952D01*
X189554285Y-92893333D01*
X189506666Y-92798095D01*
X189506666Y-92702857D01*
X189554285Y-92607619D01*
X189601904Y-92560000D01*
X189697142Y-92512380D01*
X189935238Y-92512380D01*
X190078095Y-92560000D01*
X190411428Y-92512380D02*
X190649523Y-93512380D01*
X190840000Y-92798095D01*
X191030476Y-93512380D01*
X191268571Y-92512380D01*
X191554285Y-92512380D02*
X192173333Y-92512380D01*
X191840000Y-92893333D01*
X191982857Y-92893333D01*
X192078095Y-92940952D01*
X192125714Y-92988571D01*
X192173333Y-93083809D01*
X192173333Y-93321904D01*
X192125714Y-93417142D01*
X192078095Y-93464761D01*
X191982857Y-93512380D01*
X191697142Y-93512380D01*
X191601904Y-93464761D01*
X191554285Y-93417142D01*
%TO.C,SW1*%
X191076666Y-118074761D02*
X191219523Y-118122380D01*
X191457619Y-118122380D01*
X191552857Y-118074761D01*
X191600476Y-118027142D01*
X191648095Y-117931904D01*
X191648095Y-117836666D01*
X191600476Y-117741428D01*
X191552857Y-117693809D01*
X191457619Y-117646190D01*
X191267142Y-117598571D01*
X191171904Y-117550952D01*
X191124285Y-117503333D01*
X191076666Y-117408095D01*
X191076666Y-117312857D01*
X191124285Y-117217619D01*
X191171904Y-117170000D01*
X191267142Y-117122380D01*
X191505238Y-117122380D01*
X191648095Y-117170000D01*
X191981428Y-117122380D02*
X192219523Y-118122380D01*
X192410000Y-117408095D01*
X192600476Y-118122380D01*
X192838571Y-117122380D01*
X193743333Y-118122380D02*
X193171904Y-118122380D01*
X193457619Y-118122380D02*
X193457619Y-117122380D01*
X193362380Y-117265238D01*
X193267142Y-117360476D01*
X193171904Y-117408095D01*
%TO.C,RV1*%
X197244761Y-93122380D02*
X196911428Y-92646190D01*
X196673333Y-93122380D02*
X196673333Y-92122380D01*
X197054285Y-92122380D01*
X197149523Y-92170000D01*
X197197142Y-92217619D01*
X197244761Y-92312857D01*
X197244761Y-92455714D01*
X197197142Y-92550952D01*
X197149523Y-92598571D01*
X197054285Y-92646190D01*
X196673333Y-92646190D01*
X197530476Y-92122380D02*
X197863809Y-93122380D01*
X198197142Y-92122380D01*
X199054285Y-93122380D02*
X198482857Y-93122380D01*
X198768571Y-93122380D02*
X198768571Y-92122380D01*
X198673333Y-92265238D01*
X198578095Y-92360476D01*
X198482857Y-92408095D01*
%TO.C,Q3*%
X193637619Y-108505238D02*
X193590000Y-108600476D01*
X193494761Y-108695714D01*
X193351904Y-108838571D01*
X193304285Y-108933809D01*
X193304285Y-109029047D01*
X193542380Y-108981428D02*
X193494761Y-109076666D01*
X193399523Y-109171904D01*
X193209047Y-109219523D01*
X192875714Y-109219523D01*
X192685238Y-109171904D01*
X192590000Y-109076666D01*
X192542380Y-108981428D01*
X192542380Y-108790952D01*
X192590000Y-108695714D01*
X192685238Y-108600476D01*
X192875714Y-108552857D01*
X193209047Y-108552857D01*
X193399523Y-108600476D01*
X193494761Y-108695714D01*
X193542380Y-108790952D01*
X193542380Y-108981428D01*
X192542380Y-108219523D02*
X192542380Y-107600476D01*
X192923333Y-107933809D01*
X192923333Y-107790952D01*
X192970952Y-107695714D01*
X193018571Y-107648095D01*
X193113809Y-107600476D01*
X193351904Y-107600476D01*
X193447142Y-107648095D01*
X193494761Y-107695714D01*
X193542380Y-107790952D01*
X193542380Y-108076666D01*
X193494761Y-108171904D01*
X193447142Y-108219523D01*
%TO.C,Q2*%
X182804761Y-105397619D02*
X182709523Y-105350000D01*
X182614285Y-105254761D01*
X182471428Y-105111904D01*
X182376190Y-105064285D01*
X182280952Y-105064285D01*
X182328571Y-105302380D02*
X182233333Y-105254761D01*
X182138095Y-105159523D01*
X182090476Y-104969047D01*
X182090476Y-104635714D01*
X182138095Y-104445238D01*
X182233333Y-104350000D01*
X182328571Y-104302380D01*
X182519047Y-104302380D01*
X182614285Y-104350000D01*
X182709523Y-104445238D01*
X182757142Y-104635714D01*
X182757142Y-104969047D01*
X182709523Y-105159523D01*
X182614285Y-105254761D01*
X182519047Y-105302380D01*
X182328571Y-105302380D01*
X183138095Y-104397619D02*
X183185714Y-104350000D01*
X183280952Y-104302380D01*
X183519047Y-104302380D01*
X183614285Y-104350000D01*
X183661904Y-104397619D01*
X183709523Y-104492857D01*
X183709523Y-104588095D01*
X183661904Y-104730952D01*
X183090476Y-105302380D01*
X183709523Y-105302380D01*
%TO.C,Q1*%
X177566761Y-111503619D02*
X177471523Y-111456000D01*
X177376285Y-111360761D01*
X177233428Y-111217904D01*
X177138190Y-111170285D01*
X177042952Y-111170285D01*
X177090571Y-111408380D02*
X176995333Y-111360761D01*
X176900095Y-111265523D01*
X176852476Y-111075047D01*
X176852476Y-110741714D01*
X176900095Y-110551238D01*
X176995333Y-110456000D01*
X177090571Y-110408380D01*
X177281047Y-110408380D01*
X177376285Y-110456000D01*
X177471523Y-110551238D01*
X177519142Y-110741714D01*
X177519142Y-111075047D01*
X177471523Y-111265523D01*
X177376285Y-111360761D01*
X177281047Y-111408380D01*
X177090571Y-111408380D01*
X178471523Y-111408380D02*
X177900095Y-111408380D01*
X178185809Y-111408380D02*
X178185809Y-110408380D01*
X178090571Y-110551238D01*
X177995333Y-110646476D01*
X177900095Y-110694095D01*
%TO.C,J4*%
X147696666Y-92122380D02*
X147696666Y-92836666D01*
X147649047Y-92979523D01*
X147553809Y-93074761D01*
X147410952Y-93122380D01*
X147315714Y-93122380D01*
X148601428Y-92455714D02*
X148601428Y-93122380D01*
X148363333Y-92074761D02*
X148125238Y-92789047D01*
X148744285Y-92789047D01*
%TO.C,J3*%
X199566666Y-151822380D02*
X199566666Y-152536666D01*
X199519047Y-152679523D01*
X199423809Y-152774761D01*
X199280952Y-152822380D01*
X199185714Y-152822380D01*
X199947619Y-151822380D02*
X200566666Y-151822380D01*
X200233333Y-152203333D01*
X200376190Y-152203333D01*
X200471428Y-152250952D01*
X200519047Y-152298571D01*
X200566666Y-152393809D01*
X200566666Y-152631904D01*
X200519047Y-152727142D01*
X200471428Y-152774761D01*
X200376190Y-152822380D01*
X200090476Y-152822380D01*
X199995238Y-152774761D01*
X199947619Y-152727142D01*
X205828571Y-148477142D02*
X206971428Y-148477142D01*
X192828571Y-148477142D02*
X193971428Y-148477142D01*
X193400000Y-149048571D02*
X193400000Y-147905714D01*
%TO.C,J1*%
X185068666Y-92580380D02*
X185068666Y-93294666D01*
X185021047Y-93437523D01*
X184925809Y-93532761D01*
X184782952Y-93580380D01*
X184687714Y-93580380D01*
X186068666Y-93580380D02*
X185497238Y-93580380D01*
X185782952Y-93580380D02*
X185782952Y-92580380D01*
X185687714Y-92723238D01*
X185592476Y-92818476D01*
X185497238Y-92866095D01*
%TO.C,F1*%
X159806666Y-150568571D02*
X159473333Y-150568571D01*
X159473333Y-151092380D02*
X159473333Y-150092380D01*
X159949523Y-150092380D01*
X160854285Y-151092380D02*
X160282857Y-151092380D01*
X160568571Y-151092380D02*
X160568571Y-150092380D01*
X160473333Y-150235238D01*
X160378095Y-150330476D01*
X160282857Y-150378095D01*
%TO.C,D274*%
X188929523Y-131852380D02*
X188929523Y-130852380D01*
X189167619Y-130852380D01*
X189310476Y-130900000D01*
X189405714Y-130995238D01*
X189453333Y-131090476D01*
X189500952Y-131280952D01*
X189500952Y-131423809D01*
X189453333Y-131614285D01*
X189405714Y-131709523D01*
X189310476Y-131804761D01*
X189167619Y-131852380D01*
X188929523Y-131852380D01*
X189881904Y-130947619D02*
X189929523Y-130900000D01*
X190024761Y-130852380D01*
X190262857Y-130852380D01*
X190358095Y-130900000D01*
X190405714Y-130947619D01*
X190453333Y-131042857D01*
X190453333Y-131138095D01*
X190405714Y-131280952D01*
X189834285Y-131852380D01*
X190453333Y-131852380D01*
X190786666Y-130852380D02*
X191453333Y-130852380D01*
X191024761Y-131852380D01*
X192262857Y-131185714D02*
X192262857Y-131852380D01*
X192024761Y-130804761D02*
X191786666Y-131519047D01*
X192405714Y-131519047D01*
%TO.C,D1*%
X169141904Y-141352380D02*
X169141904Y-140352380D01*
X169380000Y-140352380D01*
X169522857Y-140400000D01*
X169618095Y-140495238D01*
X169665714Y-140590476D01*
X169713333Y-140780952D01*
X169713333Y-140923809D01*
X169665714Y-141114285D01*
X169618095Y-141209523D01*
X169522857Y-141304761D01*
X169380000Y-141352380D01*
X169141904Y-141352380D01*
X170665714Y-141352380D02*
X170094285Y-141352380D01*
X170380000Y-141352380D02*
X170380000Y-140352380D01*
X170284761Y-140495238D01*
X170189523Y-140590476D01*
X170094285Y-140638095D01*
D12*
%TO.C,R287*%
X188608578Y-139640000D02*
X188091422Y-139640000D01*
X188608578Y-141060000D02*
X188091422Y-141060000D01*
%TO.C,R12*%
X189100000Y-112768578D02*
X189100000Y-112251422D01*
X187680000Y-112768578D02*
X187680000Y-112251422D01*
%TO.C,R11*%
X184763422Y-112286000D02*
X185280578Y-112286000D01*
X184763422Y-110866000D02*
X185280578Y-110866000D01*
%TO.C,R10*%
X182436000Y-112734578D02*
X182436000Y-112217422D01*
X181016000Y-112734578D02*
X181016000Y-112217422D01*
%TO.C,R9*%
X179698578Y-103130000D02*
X179181422Y-103130000D01*
X179698578Y-104550000D02*
X179181422Y-104550000D01*
%TO.C,R8*%
X182882500Y-131038578D02*
X182882500Y-130521422D01*
X181462500Y-131038578D02*
X181462500Y-130521422D01*
%TO.C,R7*%
X173870000Y-106764578D02*
X173870000Y-106247422D01*
X172450000Y-106764578D02*
X172450000Y-106247422D01*
%TO.C,R6*%
X178092500Y-131038578D02*
X178092500Y-130521422D01*
X176672500Y-131038578D02*
X176672500Y-130521422D01*
%TO.C,R5*%
X164211422Y-135330000D02*
X164728578Y-135330000D01*
X164211422Y-133910000D02*
X164728578Y-133910000D01*
%TO.C,R4*%
X199112000Y-128290422D02*
X199112000Y-128807578D01*
X200532000Y-128290422D02*
X200532000Y-128807578D01*
%TO.C,R3*%
X195812000Y-128290422D02*
X195812000Y-128807578D01*
X197232000Y-128290422D02*
X197232000Y-128807578D01*
%TO.C,R2*%
X199408922Y-111860000D02*
X199926078Y-111860000D01*
X199408922Y-110440000D02*
X199926078Y-110440000D01*
%TO.C,R1*%
X203703422Y-95198000D02*
X204220578Y-95198000D01*
X203703422Y-93778000D02*
X204220578Y-93778000D01*
%TO.C,C17*%
X188081422Y-143460000D02*
X188598578Y-143460000D01*
X188081422Y-142040000D02*
X188598578Y-142040000D01*
%TO.C,C10*%
X185681078Y-115510000D02*
X185163922Y-115510000D01*
X185681078Y-116930000D02*
X185163922Y-116930000D01*
%TO.C,C9*%
X185122500Y-130521422D02*
X185122500Y-131038578D01*
X186542500Y-130521422D02*
X186542500Y-131038578D01*
%TO.C,C8*%
X204003578Y-110440000D02*
X203486422Y-110440000D01*
X204003578Y-111860000D02*
X203486422Y-111860000D01*
%TO.C,C7*%
X203832000Y-128807578D02*
X203832000Y-128290422D01*
X202412000Y-128807578D02*
X202412000Y-128290422D01*
%TO.C,C6*%
X203703422Y-97808000D02*
X204220578Y-97808000D01*
X203703422Y-96388000D02*
X204220578Y-96388000D01*
%TO.C,C5*%
X173540000Y-96228578D02*
X173540000Y-95711422D01*
X172120000Y-96228578D02*
X172120000Y-95711422D01*
%TO.C,C4*%
X172590000Y-114481422D02*
X172590000Y-114998578D01*
X174010000Y-114481422D02*
X174010000Y-114998578D01*
%TO.C,C3*%
X202825578Y-141994000D02*
X202308422Y-141994000D01*
X202825578Y-143414000D02*
X202308422Y-143414000D01*
%TO.C,C2*%
X195578422Y-143294000D02*
X196095578Y-143294000D01*
X195578422Y-141874000D02*
X196095578Y-141874000D01*
%TO.C,C1*%
X195848578Y-110440000D02*
X195331422Y-110440000D01*
X195848578Y-111860000D02*
X195331422Y-111860000D01*
%TO.C,U3*%
X203215000Y-99370000D02*
X200980000Y-99370000D01*
X203215000Y-109650000D02*
X203215000Y-99370000D01*
X196745000Y-109650000D02*
X203215000Y-109650000D01*
X196745000Y-99370000D02*
X196745000Y-109650000D01*
X198980000Y-99370000D02*
X196745000Y-99370000D01*
X200980000Y-99370000D02*
G75*
G02*
X198980000Y-99370000I-1000000J0D01*
G01*
%TO.C,SW2*%
X176512500Y-133680000D02*
X175312500Y-133680000D01*
X175312500Y-133680000D02*
X175312500Y-137880000D01*
X175312500Y-137880000D02*
X176512500Y-137880000D01*
X183312500Y-133680000D02*
X184512500Y-133680000D01*
X184512500Y-133680000D02*
X184512500Y-137880000D01*
X184512500Y-137880000D02*
X183312500Y-137880000D01*
X176212500Y-133380000D02*
X175012500Y-133380000D01*
X175012500Y-133380000D02*
X175012500Y-134580000D01*
%TO.C,J2*%
X176974000Y-94473000D02*
X179874000Y-94473000D01*
X176974000Y-101183000D02*
X179874000Y-101183000D01*
X181779000Y-96378000D02*
X181779000Y-99278000D01*
X175069000Y-96378000D02*
X175069000Y-99278000D01*
%TO.C,U1*%
X170970000Y-114700000D02*
X160690000Y-114700000D01*
X170970000Y-132720000D02*
X170970000Y-114700000D01*
X160690000Y-132720000D02*
X170970000Y-132720000D01*
X160690000Y-114700000D02*
X160690000Y-132720000D01*
X168480000Y-114760000D02*
X166830000Y-114760000D01*
X168480000Y-132660000D02*
X168480000Y-114760000D01*
X163180000Y-132660000D02*
X168480000Y-132660000D01*
X163180000Y-114760000D02*
X163180000Y-132660000D01*
X164830000Y-114760000D02*
X163180000Y-114760000D01*
X166830000Y-114760000D02*
G75*
G02*
X164830000Y-114760000I-1000000J0D01*
G01*
%TO.C,U2*%
X170970000Y-93868000D02*
X160690000Y-93868000D01*
X170970000Y-111888000D02*
X170970000Y-93868000D01*
X160690000Y-111888000D02*
X170970000Y-111888000D01*
X160690000Y-93868000D02*
X160690000Y-111888000D01*
X168480000Y-93928000D02*
X166830000Y-93928000D01*
X168480000Y-111828000D02*
X168480000Y-93928000D01*
X163180000Y-111828000D02*
X168480000Y-111828000D01*
X163180000Y-93928000D02*
X163180000Y-111828000D01*
X164830000Y-93928000D02*
X163180000Y-93928000D01*
X166830000Y-93928000D02*
G75*
G02*
X164830000Y-93928000I-1000000J0D01*
G01*
%TO.C,U4*%
X203107000Y-130994000D02*
X200872000Y-130994000D01*
X203107000Y-141274000D02*
X203107000Y-130994000D01*
X196637000Y-141274000D02*
X203107000Y-141274000D01*
X196637000Y-130994000D02*
X196637000Y-141274000D01*
X198872000Y-130994000D02*
X196637000Y-130994000D01*
X200872000Y-130994000D02*
G75*
G02*
X198872000Y-130994000I-1000000J0D01*
G01*
%TO.C,U5*%
X184297500Y-118300000D02*
X182062500Y-118300000D01*
X184297500Y-128580000D02*
X184297500Y-118300000D01*
X177827500Y-128580000D02*
X184297500Y-128580000D01*
X177827500Y-118300000D02*
X177827500Y-128580000D01*
X180062500Y-118300000D02*
X177827500Y-118300000D01*
X182062500Y-118300000D02*
G75*
G02*
X180062500Y-118300000I-1000000J0D01*
G01*
%TO.C,SW3*%
X188760000Y-101960000D02*
X188760000Y-103160000D01*
X188760000Y-103160000D02*
X192960000Y-103160000D01*
X192960000Y-103160000D02*
X192960000Y-101960000D01*
X188760000Y-95160000D02*
X188760000Y-93960000D01*
X188760000Y-93960000D02*
X192960000Y-93960000D01*
X192960000Y-93960000D02*
X192960000Y-95160000D01*
X188460000Y-102260000D02*
X188460000Y-103460000D01*
X188460000Y-103460000D02*
X189660000Y-103460000D01*
D10*
%TO.C,SW1*%
X197715157Y-114036905D02*
G75*
G03*
X202502000Y-114034000I2396843J-5637095D01*
G01*
X197722000Y-114034000D02*
X202502000Y-114034000D01*
D12*
%TO.C,RV1*%
X196330000Y-93510000D02*
X198570000Y-93510000D01*
X196330000Y-97251000D02*
X198570000Y-97251000D01*
X198570000Y-97251000D02*
X198570000Y-93510000D01*
X196330000Y-97251000D02*
X196330000Y-93510000D01*
X196016000Y-97251000D02*
X198885000Y-97251000D01*
X194180000Y-93510000D02*
X200720000Y-93510000D01*
X200720000Y-96205000D02*
X200720000Y-93510000D01*
X194180000Y-96205000D02*
X194180000Y-93510000D01*
%TO.C,Q3*%
X187653522Y-105563522D02*
G75*
G03*
X189492000Y-110002000I1838478J-1838478D01*
G01*
X191330478Y-105563522D02*
G75*
G02*
X189492000Y-110002000I-1838478J-1838478D01*
G01*
X191292000Y-105552000D02*
X187692000Y-105552000D01*
%TO.C,Q2*%
X185342478Y-109954478D02*
G75*
G03*
X183504000Y-105516000I-1838478J1838478D01*
G01*
X181665522Y-109954478D02*
G75*
G02*
X183504000Y-105516000I1838478J1838478D01*
G01*
X181704000Y-109966000D02*
X185304000Y-109966000D01*
%TO.C,Q1*%
X175823522Y-105557522D02*
G75*
G03*
X177662000Y-109996000I1838478J-1838478D01*
G01*
X179500478Y-105557522D02*
G75*
G02*
X177662000Y-109996000I-1838478J-1838478D01*
G01*
X179462000Y-105546000D02*
X175862000Y-105546000D01*
%TO.C,J4*%
X153680000Y-94110000D02*
X154790000Y-94110000D01*
X154790000Y-94110000D02*
X154790000Y-95440000D01*
X141050000Y-94110000D02*
X141050000Y-145030000D01*
X141050000Y-145030000D02*
X149680000Y-145030000D01*
X149680000Y-94110000D02*
X149680000Y-145030000D01*
X141050000Y-94110000D02*
X149680000Y-94110000D01*
X141050000Y-142430000D02*
X149680000Y-142430000D01*
X141050000Y-139890000D02*
X149680000Y-139890000D01*
X141050000Y-137350000D02*
X149680000Y-137350000D01*
X141050000Y-134810000D02*
X149680000Y-134810000D01*
X141050000Y-132270000D02*
X149680000Y-132270000D01*
X141050000Y-129730000D02*
X149680000Y-129730000D01*
X141050000Y-127190000D02*
X149680000Y-127190000D01*
X141050000Y-124650000D02*
X149680000Y-124650000D01*
X141050000Y-122110000D02*
X149680000Y-122110000D01*
X141050000Y-119570000D02*
X149680000Y-119570000D01*
X141050000Y-117030000D02*
X149680000Y-117030000D01*
X141050000Y-114490000D02*
X149680000Y-114490000D01*
X141050000Y-111950000D02*
X149680000Y-111950000D01*
X141050000Y-109410000D02*
X149680000Y-109410000D01*
X141050000Y-106870000D02*
X149680000Y-106870000D01*
X141050000Y-104330000D02*
X149680000Y-104330000D01*
X141050000Y-101790000D02*
X149680000Y-101790000D01*
X141050000Y-99250000D02*
X149680000Y-99250000D01*
X141050000Y-96710000D02*
X149680000Y-96710000D01*
X152190000Y-144060000D02*
X152630000Y-144060000D01*
X149680000Y-144060000D02*
X150090000Y-144060000D01*
X152190000Y-143340000D02*
X152630000Y-143340000D01*
X149680000Y-143340000D02*
X150090000Y-143340000D01*
X152190000Y-141520000D02*
X152630000Y-141520000D01*
X149680000Y-141520000D02*
X150090000Y-141520000D01*
X152190000Y-140800000D02*
X152630000Y-140800000D01*
X149680000Y-140800000D02*
X150090000Y-140800000D01*
X152190000Y-138980000D02*
X152630000Y-138980000D01*
X149680000Y-138980000D02*
X150090000Y-138980000D01*
X152190000Y-138260000D02*
X152630000Y-138260000D01*
X149680000Y-138260000D02*
X150090000Y-138260000D01*
X152190000Y-136440000D02*
X152630000Y-136440000D01*
X149680000Y-136440000D02*
X150090000Y-136440000D01*
X152190000Y-135720000D02*
X152630000Y-135720000D01*
X149680000Y-135720000D02*
X150090000Y-135720000D01*
X152190000Y-133900000D02*
X152630000Y-133900000D01*
X149680000Y-133900000D02*
X150090000Y-133900000D01*
X152190000Y-133180000D02*
X152630000Y-133180000D01*
X149680000Y-133180000D02*
X150090000Y-133180000D01*
X152190000Y-131360000D02*
X152630000Y-131360000D01*
X149680000Y-131360000D02*
X150090000Y-131360000D01*
X152190000Y-130640000D02*
X152630000Y-130640000D01*
X149680000Y-130640000D02*
X150090000Y-130640000D01*
X152190000Y-128820000D02*
X152630000Y-128820000D01*
X149680000Y-128820000D02*
X150090000Y-128820000D01*
X152190000Y-128100000D02*
X152630000Y-128100000D01*
X149680000Y-128100000D02*
X150090000Y-128100000D01*
X152190000Y-126280000D02*
X152630000Y-126280000D01*
X149680000Y-126280000D02*
X150090000Y-126280000D01*
X152190000Y-125560000D02*
X152630000Y-125560000D01*
X149680000Y-125560000D02*
X150090000Y-125560000D01*
X152190000Y-123740000D02*
X152630000Y-123740000D01*
X149680000Y-123740000D02*
X150090000Y-123740000D01*
X152190000Y-123020000D02*
X152630000Y-123020000D01*
X149680000Y-123020000D02*
X150090000Y-123020000D01*
X152190000Y-121200000D02*
X152630000Y-121200000D01*
X149680000Y-121200000D02*
X150090000Y-121200000D01*
X152190000Y-120480000D02*
X152630000Y-120480000D01*
X149680000Y-120480000D02*
X150090000Y-120480000D01*
X152190000Y-118660000D02*
X152630000Y-118660000D01*
X149680000Y-118660000D02*
X150090000Y-118660000D01*
X152190000Y-117940000D02*
X152630000Y-117940000D01*
X149680000Y-117940000D02*
X150090000Y-117940000D01*
X152190000Y-116120000D02*
X152630000Y-116120000D01*
X149680000Y-116120000D02*
X150090000Y-116120000D01*
X152190000Y-115400000D02*
X152630000Y-115400000D01*
X149680000Y-115400000D02*
X150090000Y-115400000D01*
X152190000Y-113580000D02*
X152630000Y-113580000D01*
X149680000Y-113580000D02*
X150090000Y-113580000D01*
X152190000Y-112860000D02*
X152630000Y-112860000D01*
X149680000Y-112860000D02*
X150090000Y-112860000D01*
X152190000Y-111040000D02*
X152630000Y-111040000D01*
X149680000Y-111040000D02*
X150090000Y-111040000D01*
X152190000Y-110320000D02*
X152630000Y-110320000D01*
X149680000Y-110320000D02*
X150090000Y-110320000D01*
X152190000Y-108500000D02*
X152630000Y-108500000D01*
X149680000Y-108500000D02*
X150090000Y-108500000D01*
X152190000Y-107780000D02*
X152630000Y-107780000D01*
X149680000Y-107780000D02*
X150090000Y-107780000D01*
X152190000Y-105960000D02*
X152630000Y-105960000D01*
X149680000Y-105960000D02*
X150090000Y-105960000D01*
X152190000Y-105240000D02*
X152630000Y-105240000D01*
X149680000Y-105240000D02*
X150090000Y-105240000D01*
X152190000Y-103420000D02*
X152630000Y-103420000D01*
X149680000Y-103420000D02*
X150090000Y-103420000D01*
X152190000Y-102700000D02*
X152630000Y-102700000D01*
X149680000Y-102700000D02*
X150090000Y-102700000D01*
X152190000Y-100880000D02*
X152630000Y-100880000D01*
X149680000Y-100880000D02*
X150090000Y-100880000D01*
X152190000Y-100160000D02*
X152630000Y-100160000D01*
X149680000Y-100160000D02*
X150090000Y-100160000D01*
X152190000Y-98340000D02*
X152630000Y-98340000D01*
X149680000Y-98340000D02*
X150090000Y-98340000D01*
X152190000Y-97620000D02*
X152630000Y-97620000D01*
X149680000Y-97620000D02*
X150090000Y-97620000D01*
X152190000Y-95800000D02*
X152570000Y-95800000D01*
X149680000Y-95800000D02*
X150090000Y-95800000D01*
X152190000Y-95080000D02*
X152570000Y-95080000D01*
X149680000Y-95080000D02*
X150090000Y-95080000D01*
X141050000Y-96591900D02*
X149680000Y-96591900D01*
X141050000Y-96473805D02*
X149680000Y-96473805D01*
X141050000Y-96355710D02*
X149680000Y-96355710D01*
X141050000Y-96237615D02*
X149680000Y-96237615D01*
X141050000Y-96119520D02*
X149680000Y-96119520D01*
X141050000Y-96001425D02*
X149680000Y-96001425D01*
X141050000Y-95883330D02*
X149680000Y-95883330D01*
X141050000Y-95765235D02*
X149680000Y-95765235D01*
X141050000Y-95647140D02*
X149680000Y-95647140D01*
X141050000Y-95529045D02*
X149680000Y-95529045D01*
X141050000Y-95410950D02*
X149680000Y-95410950D01*
X141050000Y-95292855D02*
X149680000Y-95292855D01*
X141050000Y-95174760D02*
X149680000Y-95174760D01*
X141050000Y-95056665D02*
X149680000Y-95056665D01*
X141050000Y-94938570D02*
X149680000Y-94938570D01*
X141050000Y-94820475D02*
X149680000Y-94820475D01*
X141050000Y-94702380D02*
X149680000Y-94702380D01*
X141050000Y-94584285D02*
X149680000Y-94584285D01*
X141050000Y-94466190D02*
X149680000Y-94466190D01*
X141050000Y-94348095D02*
X149680000Y-94348095D01*
X141050000Y-94230000D02*
X149680000Y-94230000D01*
%TO.C,J3*%
X205110000Y-149780000D02*
X205110000Y-146960000D01*
X205110000Y-146960000D02*
X203410000Y-145660000D01*
X205110000Y-149780000D02*
X203410000Y-151080000D01*
X203410000Y-145660000D02*
X194690000Y-145660000D01*
X194690000Y-151080000D02*
X194690000Y-145660000D01*
X203410000Y-151080000D02*
X194690000Y-151080000D01*
%TO.C,J1*%
X184072000Y-94128000D02*
X185402000Y-94128000D01*
X184072000Y-95458000D02*
X184072000Y-94128000D01*
X184072000Y-96728000D02*
X186732000Y-96728000D01*
X186732000Y-96728000D02*
X186732000Y-104408000D01*
X184072000Y-96728000D02*
X184072000Y-104408000D01*
X184072000Y-104408000D02*
X186732000Y-104408000D01*
%TO.C,F1*%
X161640000Y-151350000D02*
X161640000Y-148550000D01*
X161640000Y-151350000D02*
X184240000Y-151350000D01*
X161640000Y-141750000D02*
X184240000Y-141750000D01*
X161640000Y-144550000D02*
X161640000Y-141750000D01*
X184240000Y-144550000D02*
X184240000Y-141750000D01*
X184240000Y-151350000D02*
X184240000Y-148550000D01*
%TO.C,D274*%
X191825000Y-133060000D02*
X188735000Y-133060000D01*
X192780000Y-135620000D02*
G75*
G03*
X192780000Y-135620000I-2500000J0D01*
G01*
X190280462Y-138610000D02*
G75*
G02*
X188735170Y-133060000I-462J2990000D01*
G01*
X190279538Y-138610000D02*
G75*
G03*
X191824830Y-133060000I462J2990000D01*
G01*
%TO.C,D1*%
X172440000Y-138485000D02*
X172440000Y-135395000D01*
X172380000Y-136940000D02*
G75*
G03*
X172380000Y-136940000I-2500000J0D01*
G01*
X166890000Y-136940462D02*
G75*
G02*
X172440000Y-135395170I2990000J462D01*
G01*
X166890000Y-136939538D02*
G75*
G03*
X172440000Y-138484830I2990000J-462D01*
G01*
%TD*%
M02*
