%TF.GenerationSoftware,KiCad,Pcbnew,(5.99.0-2101-geb1ff80d5)*%
%TF.CreationDate,2020-11-29T13:35:49+01:00*%
%TF.ProjectId,CLK_stdln,434c4b5f-7374-4646-9c6e-2e6b69636164,rev?*%
%TF.SameCoordinates,Original*%
%TF.FileFunction,Soldermask,Top*%
%TF.FilePolarity,Negative*%
%FSLAX46Y46*%
G04 Gerber Fmt 4.6, Leading zero omitted, Abs format (unit mm)*
G04 Created by KiCad (PCBNEW (5.99.0-2101-geb1ff80d5)) date 2020-11-29 13:35:49*
%MOMM*%
%LPD*%
G01*
G04 APERTURE LIST*
%ADD10O,1.600000X1.600000*%
%ADD11R,1.600000X1.600000*%
%ADD12C,1.400000*%
%ADD13R,1.400000X1.400000*%
%ADD14C,2.250000*%
%ADD15C,2.050000*%
%ADD16C,2.000000*%
%ADD17C,1.620000*%
%ADD18R,1.050000X1.500000*%
%ADD19O,1.050000X1.500000*%
%ADD20O,1.700000X1.700000*%
%ADD21R,1.700000X1.700000*%
%ADD22C,4.000000*%
%ADD23R,3.800000X3.800000*%
%ADD24C,3.000000*%
%ADD25C,1.800000*%
%ADD26R,1.800000X1.800000*%
G04 APERTURE END LIST*
%TO.C,R287*%
G36*
G01*
X187900000Y-139893750D02*
X187900000Y-140806250D01*
G75*
G02*
X187656250Y-141050000I-243750J0D01*
G01*
X187168750Y-141050000D01*
G75*
G02*
X186925000Y-140806250I0J243750D01*
G01*
X186925000Y-139893750D01*
G75*
G02*
X187168750Y-139650000I243750J0D01*
G01*
X187656250Y-139650000D01*
G75*
G02*
X187900000Y-139893750I0J-243750D01*
G01*
G37*
G36*
G01*
X189775000Y-139893750D02*
X189775000Y-140806250D01*
G75*
G02*
X189531250Y-141050000I-243750J0D01*
G01*
X189043750Y-141050000D01*
G75*
G02*
X188800000Y-140806250I0J243750D01*
G01*
X188800000Y-139893750D01*
G75*
G02*
X189043750Y-139650000I243750J0D01*
G01*
X189531250Y-139650000D01*
G75*
G02*
X189775000Y-139893750I0J-243750D01*
G01*
G37*
%TD*%
%TO.C,R12*%
G36*
G01*
X188846250Y-112060000D02*
X187933750Y-112060000D01*
G75*
G02*
X187690000Y-111816250I0J243750D01*
G01*
X187690000Y-111328750D01*
G75*
G02*
X187933750Y-111085000I243750J0D01*
G01*
X188846250Y-111085000D01*
G75*
G02*
X189090000Y-111328750I0J-243750D01*
G01*
X189090000Y-111816250D01*
G75*
G02*
X188846250Y-112060000I-243750J0D01*
G01*
G37*
G36*
G01*
X188846250Y-113935000D02*
X187933750Y-113935000D01*
G75*
G02*
X187690000Y-113691250I0J243750D01*
G01*
X187690000Y-113203750D01*
G75*
G02*
X187933750Y-112960000I243750J0D01*
G01*
X188846250Y-112960000D01*
G75*
G02*
X189090000Y-113203750I0J-243750D01*
G01*
X189090000Y-113691250D01*
G75*
G02*
X188846250Y-113935000I-243750J0D01*
G01*
G37*
%TD*%
%TO.C,R11*%
G36*
G01*
X185472000Y-112032250D02*
X185472000Y-111119750D01*
G75*
G02*
X185715750Y-110876000I243750J0D01*
G01*
X186203250Y-110876000D01*
G75*
G02*
X186447000Y-111119750I0J-243750D01*
G01*
X186447000Y-112032250D01*
G75*
G02*
X186203250Y-112276000I-243750J0D01*
G01*
X185715750Y-112276000D01*
G75*
G02*
X185472000Y-112032250I0J243750D01*
G01*
G37*
G36*
G01*
X183597000Y-112032250D02*
X183597000Y-111119750D01*
G75*
G02*
X183840750Y-110876000I243750J0D01*
G01*
X184328250Y-110876000D01*
G75*
G02*
X184572000Y-111119750I0J-243750D01*
G01*
X184572000Y-112032250D01*
G75*
G02*
X184328250Y-112276000I-243750J0D01*
G01*
X183840750Y-112276000D01*
G75*
G02*
X183597000Y-112032250I0J243750D01*
G01*
G37*
%TD*%
%TO.C,R10*%
G36*
G01*
X182182250Y-112026000D02*
X181269750Y-112026000D01*
G75*
G02*
X181026000Y-111782250I0J243750D01*
G01*
X181026000Y-111294750D01*
G75*
G02*
X181269750Y-111051000I243750J0D01*
G01*
X182182250Y-111051000D01*
G75*
G02*
X182426000Y-111294750I0J-243750D01*
G01*
X182426000Y-111782250D01*
G75*
G02*
X182182250Y-112026000I-243750J0D01*
G01*
G37*
G36*
G01*
X182182250Y-113901000D02*
X181269750Y-113901000D01*
G75*
G02*
X181026000Y-113657250I0J243750D01*
G01*
X181026000Y-113169750D01*
G75*
G02*
X181269750Y-112926000I243750J0D01*
G01*
X182182250Y-112926000D01*
G75*
G02*
X182426000Y-113169750I0J-243750D01*
G01*
X182426000Y-113657250D01*
G75*
G02*
X182182250Y-113901000I-243750J0D01*
G01*
G37*
%TD*%
%TO.C,R9*%
G36*
G01*
X178990000Y-103383750D02*
X178990000Y-104296250D01*
G75*
G02*
X178746250Y-104540000I-243750J0D01*
G01*
X178258750Y-104540000D01*
G75*
G02*
X178015000Y-104296250I0J243750D01*
G01*
X178015000Y-103383750D01*
G75*
G02*
X178258750Y-103140000I243750J0D01*
G01*
X178746250Y-103140000D01*
G75*
G02*
X178990000Y-103383750I0J-243750D01*
G01*
G37*
G36*
G01*
X180865000Y-103383750D02*
X180865000Y-104296250D01*
G75*
G02*
X180621250Y-104540000I-243750J0D01*
G01*
X180133750Y-104540000D01*
G75*
G02*
X179890000Y-104296250I0J243750D01*
G01*
X179890000Y-103383750D01*
G75*
G02*
X180133750Y-103140000I243750J0D01*
G01*
X180621250Y-103140000D01*
G75*
G02*
X180865000Y-103383750I0J-243750D01*
G01*
G37*
%TD*%
%TO.C,R8*%
G36*
G01*
X182628750Y-130330000D02*
X181716250Y-130330000D01*
G75*
G02*
X181472500Y-130086250I0J243750D01*
G01*
X181472500Y-129598750D01*
G75*
G02*
X181716250Y-129355000I243750J0D01*
G01*
X182628750Y-129355000D01*
G75*
G02*
X182872500Y-129598750I0J-243750D01*
G01*
X182872500Y-130086250D01*
G75*
G02*
X182628750Y-130330000I-243750J0D01*
G01*
G37*
G36*
G01*
X182628750Y-132205000D02*
X181716250Y-132205000D01*
G75*
G02*
X181472500Y-131961250I0J243750D01*
G01*
X181472500Y-131473750D01*
G75*
G02*
X181716250Y-131230000I243750J0D01*
G01*
X182628750Y-131230000D01*
G75*
G02*
X182872500Y-131473750I0J-243750D01*
G01*
X182872500Y-131961250D01*
G75*
G02*
X182628750Y-132205000I-243750J0D01*
G01*
G37*
%TD*%
%TO.C,R7*%
G36*
G01*
X173616250Y-106056000D02*
X172703750Y-106056000D01*
G75*
G02*
X172460000Y-105812250I0J243750D01*
G01*
X172460000Y-105324750D01*
G75*
G02*
X172703750Y-105081000I243750J0D01*
G01*
X173616250Y-105081000D01*
G75*
G02*
X173860000Y-105324750I0J-243750D01*
G01*
X173860000Y-105812250D01*
G75*
G02*
X173616250Y-106056000I-243750J0D01*
G01*
G37*
G36*
G01*
X173616250Y-107931000D02*
X172703750Y-107931000D01*
G75*
G02*
X172460000Y-107687250I0J243750D01*
G01*
X172460000Y-107199750D01*
G75*
G02*
X172703750Y-106956000I243750J0D01*
G01*
X173616250Y-106956000D01*
G75*
G02*
X173860000Y-107199750I0J-243750D01*
G01*
X173860000Y-107687250D01*
G75*
G02*
X173616250Y-107931000I-243750J0D01*
G01*
G37*
%TD*%
%TO.C,R6*%
G36*
G01*
X177838750Y-130330000D02*
X176926250Y-130330000D01*
G75*
G02*
X176682500Y-130086250I0J243750D01*
G01*
X176682500Y-129598750D01*
G75*
G02*
X176926250Y-129355000I243750J0D01*
G01*
X177838750Y-129355000D01*
G75*
G02*
X178082500Y-129598750I0J-243750D01*
G01*
X178082500Y-130086250D01*
G75*
G02*
X177838750Y-130330000I-243750J0D01*
G01*
G37*
G36*
G01*
X177838750Y-132205000D02*
X176926250Y-132205000D01*
G75*
G02*
X176682500Y-131961250I0J243750D01*
G01*
X176682500Y-131473750D01*
G75*
G02*
X176926250Y-131230000I243750J0D01*
G01*
X177838750Y-131230000D01*
G75*
G02*
X178082500Y-131473750I0J-243750D01*
G01*
X178082500Y-131961250D01*
G75*
G02*
X177838750Y-132205000I-243750J0D01*
G01*
G37*
%TD*%
%TO.C,R5*%
G36*
G01*
X164920000Y-135076250D02*
X164920000Y-134163750D01*
G75*
G02*
X165163750Y-133920000I243750J0D01*
G01*
X165651250Y-133920000D01*
G75*
G02*
X165895000Y-134163750I0J-243750D01*
G01*
X165895000Y-135076250D01*
G75*
G02*
X165651250Y-135320000I-243750J0D01*
G01*
X165163750Y-135320000D01*
G75*
G02*
X164920000Y-135076250I0J243750D01*
G01*
G37*
G36*
G01*
X163045000Y-135076250D02*
X163045000Y-134163750D01*
G75*
G02*
X163288750Y-133920000I243750J0D01*
G01*
X163776250Y-133920000D01*
G75*
G02*
X164020000Y-134163750I0J-243750D01*
G01*
X164020000Y-135076250D01*
G75*
G02*
X163776250Y-135320000I-243750J0D01*
G01*
X163288750Y-135320000D01*
G75*
G02*
X163045000Y-135076250I0J243750D01*
G01*
G37*
%TD*%
%TO.C,R4*%
G36*
G01*
X199365750Y-128999000D02*
X200278250Y-128999000D01*
G75*
G02*
X200522000Y-129242750I0J-243750D01*
G01*
X200522000Y-129730250D01*
G75*
G02*
X200278250Y-129974000I-243750J0D01*
G01*
X199365750Y-129974000D01*
G75*
G02*
X199122000Y-129730250I0J243750D01*
G01*
X199122000Y-129242750D01*
G75*
G02*
X199365750Y-128999000I243750J0D01*
G01*
G37*
G36*
G01*
X199365750Y-127124000D02*
X200278250Y-127124000D01*
G75*
G02*
X200522000Y-127367750I0J-243750D01*
G01*
X200522000Y-127855250D01*
G75*
G02*
X200278250Y-128099000I-243750J0D01*
G01*
X199365750Y-128099000D01*
G75*
G02*
X199122000Y-127855250I0J243750D01*
G01*
X199122000Y-127367750D01*
G75*
G02*
X199365750Y-127124000I243750J0D01*
G01*
G37*
%TD*%
%TO.C,R3*%
G36*
G01*
X196065750Y-128999000D02*
X196978250Y-128999000D01*
G75*
G02*
X197222000Y-129242750I0J-243750D01*
G01*
X197222000Y-129730250D01*
G75*
G02*
X196978250Y-129974000I-243750J0D01*
G01*
X196065750Y-129974000D01*
G75*
G02*
X195822000Y-129730250I0J243750D01*
G01*
X195822000Y-129242750D01*
G75*
G02*
X196065750Y-128999000I243750J0D01*
G01*
G37*
G36*
G01*
X196065750Y-127124000D02*
X196978250Y-127124000D01*
G75*
G02*
X197222000Y-127367750I0J-243750D01*
G01*
X197222000Y-127855250D01*
G75*
G02*
X196978250Y-128099000I-243750J0D01*
G01*
X196065750Y-128099000D01*
G75*
G02*
X195822000Y-127855250I0J243750D01*
G01*
X195822000Y-127367750D01*
G75*
G02*
X196065750Y-127124000I243750J0D01*
G01*
G37*
%TD*%
%TO.C,R2*%
G36*
G01*
X200117500Y-111606250D02*
X200117500Y-110693750D01*
G75*
G02*
X200361250Y-110450000I243750J0D01*
G01*
X200848750Y-110450000D01*
G75*
G02*
X201092500Y-110693750I0J-243750D01*
G01*
X201092500Y-111606250D01*
G75*
G02*
X200848750Y-111850000I-243750J0D01*
G01*
X200361250Y-111850000D01*
G75*
G02*
X200117500Y-111606250I0J243750D01*
G01*
G37*
G36*
G01*
X198242500Y-111606250D02*
X198242500Y-110693750D01*
G75*
G02*
X198486250Y-110450000I243750J0D01*
G01*
X198973750Y-110450000D01*
G75*
G02*
X199217500Y-110693750I0J-243750D01*
G01*
X199217500Y-111606250D01*
G75*
G02*
X198973750Y-111850000I-243750J0D01*
G01*
X198486250Y-111850000D01*
G75*
G02*
X198242500Y-111606250I0J243750D01*
G01*
G37*
%TD*%
%TO.C,R1*%
G36*
G01*
X204412000Y-94944250D02*
X204412000Y-94031750D01*
G75*
G02*
X204655750Y-93788000I243750J0D01*
G01*
X205143250Y-93788000D01*
G75*
G02*
X205387000Y-94031750I0J-243750D01*
G01*
X205387000Y-94944250D01*
G75*
G02*
X205143250Y-95188000I-243750J0D01*
G01*
X204655750Y-95188000D01*
G75*
G02*
X204412000Y-94944250I0J243750D01*
G01*
G37*
G36*
G01*
X202537000Y-94944250D02*
X202537000Y-94031750D01*
G75*
G02*
X202780750Y-93788000I243750J0D01*
G01*
X203268250Y-93788000D01*
G75*
G02*
X203512000Y-94031750I0J-243750D01*
G01*
X203512000Y-94944250D01*
G75*
G02*
X203268250Y-95188000I-243750J0D01*
G01*
X202780750Y-95188000D01*
G75*
G02*
X202537000Y-94944250I0J243750D01*
G01*
G37*
%TD*%
%TO.C,C17*%
G36*
G01*
X188790000Y-143206250D02*
X188790000Y-142293750D01*
G75*
G02*
X189033750Y-142050000I243750J0D01*
G01*
X189521250Y-142050000D01*
G75*
G02*
X189765000Y-142293750I0J-243750D01*
G01*
X189765000Y-143206250D01*
G75*
G02*
X189521250Y-143450000I-243750J0D01*
G01*
X189033750Y-143450000D01*
G75*
G02*
X188790000Y-143206250I0J243750D01*
G01*
G37*
G36*
G01*
X186915000Y-143206250D02*
X186915000Y-142293750D01*
G75*
G02*
X187158750Y-142050000I243750J0D01*
G01*
X187646250Y-142050000D01*
G75*
G02*
X187890000Y-142293750I0J-243750D01*
G01*
X187890000Y-143206250D01*
G75*
G02*
X187646250Y-143450000I-243750J0D01*
G01*
X187158750Y-143450000D01*
G75*
G02*
X186915000Y-143206250I0J243750D01*
G01*
G37*
%TD*%
%TO.C,C10*%
G36*
G01*
X184972500Y-115763750D02*
X184972500Y-116676250D01*
G75*
G02*
X184728750Y-116920000I-243750J0D01*
G01*
X184241250Y-116920000D01*
G75*
G02*
X183997500Y-116676250I0J243750D01*
G01*
X183997500Y-115763750D01*
G75*
G02*
X184241250Y-115520000I243750J0D01*
G01*
X184728750Y-115520000D01*
G75*
G02*
X184972500Y-115763750I0J-243750D01*
G01*
G37*
G36*
G01*
X186847500Y-115763750D02*
X186847500Y-116676250D01*
G75*
G02*
X186603750Y-116920000I-243750J0D01*
G01*
X186116250Y-116920000D01*
G75*
G02*
X185872500Y-116676250I0J243750D01*
G01*
X185872500Y-115763750D01*
G75*
G02*
X186116250Y-115520000I243750J0D01*
G01*
X186603750Y-115520000D01*
G75*
G02*
X186847500Y-115763750I0J-243750D01*
G01*
G37*
%TD*%
%TO.C,C9*%
G36*
G01*
X185376250Y-131230000D02*
X186288750Y-131230000D01*
G75*
G02*
X186532500Y-131473750I0J-243750D01*
G01*
X186532500Y-131961250D01*
G75*
G02*
X186288750Y-132205000I-243750J0D01*
G01*
X185376250Y-132205000D01*
G75*
G02*
X185132500Y-131961250I0J243750D01*
G01*
X185132500Y-131473750D01*
G75*
G02*
X185376250Y-131230000I243750J0D01*
G01*
G37*
G36*
G01*
X185376250Y-129355000D02*
X186288750Y-129355000D01*
G75*
G02*
X186532500Y-129598750I0J-243750D01*
G01*
X186532500Y-130086250D01*
G75*
G02*
X186288750Y-130330000I-243750J0D01*
G01*
X185376250Y-130330000D01*
G75*
G02*
X185132500Y-130086250I0J243750D01*
G01*
X185132500Y-129598750D01*
G75*
G02*
X185376250Y-129355000I243750J0D01*
G01*
G37*
%TD*%
%TO.C,C8*%
G36*
G01*
X203295000Y-110693750D02*
X203295000Y-111606250D01*
G75*
G02*
X203051250Y-111850000I-243750J0D01*
G01*
X202563750Y-111850000D01*
G75*
G02*
X202320000Y-111606250I0J243750D01*
G01*
X202320000Y-110693750D01*
G75*
G02*
X202563750Y-110450000I243750J0D01*
G01*
X203051250Y-110450000D01*
G75*
G02*
X203295000Y-110693750I0J-243750D01*
G01*
G37*
G36*
G01*
X205170000Y-110693750D02*
X205170000Y-111606250D01*
G75*
G02*
X204926250Y-111850000I-243750J0D01*
G01*
X204438750Y-111850000D01*
G75*
G02*
X204195000Y-111606250I0J243750D01*
G01*
X204195000Y-110693750D01*
G75*
G02*
X204438750Y-110450000I243750J0D01*
G01*
X204926250Y-110450000D01*
G75*
G02*
X205170000Y-110693750I0J-243750D01*
G01*
G37*
%TD*%
%TO.C,C7*%
G36*
G01*
X203578250Y-128099000D02*
X202665750Y-128099000D01*
G75*
G02*
X202422000Y-127855250I0J243750D01*
G01*
X202422000Y-127367750D01*
G75*
G02*
X202665750Y-127124000I243750J0D01*
G01*
X203578250Y-127124000D01*
G75*
G02*
X203822000Y-127367750I0J-243750D01*
G01*
X203822000Y-127855250D01*
G75*
G02*
X203578250Y-128099000I-243750J0D01*
G01*
G37*
G36*
G01*
X203578250Y-129974000D02*
X202665750Y-129974000D01*
G75*
G02*
X202422000Y-129730250I0J243750D01*
G01*
X202422000Y-129242750D01*
G75*
G02*
X202665750Y-128999000I243750J0D01*
G01*
X203578250Y-128999000D01*
G75*
G02*
X203822000Y-129242750I0J-243750D01*
G01*
X203822000Y-129730250D01*
G75*
G02*
X203578250Y-129974000I-243750J0D01*
G01*
G37*
%TD*%
%TO.C,C6*%
G36*
G01*
X204412000Y-97554250D02*
X204412000Y-96641750D01*
G75*
G02*
X204655750Y-96398000I243750J0D01*
G01*
X205143250Y-96398000D01*
G75*
G02*
X205387000Y-96641750I0J-243750D01*
G01*
X205387000Y-97554250D01*
G75*
G02*
X205143250Y-97798000I-243750J0D01*
G01*
X204655750Y-97798000D01*
G75*
G02*
X204412000Y-97554250I0J243750D01*
G01*
G37*
G36*
G01*
X202537000Y-97554250D02*
X202537000Y-96641750D01*
G75*
G02*
X202780750Y-96398000I243750J0D01*
G01*
X203268250Y-96398000D01*
G75*
G02*
X203512000Y-96641750I0J-243750D01*
G01*
X203512000Y-97554250D01*
G75*
G02*
X203268250Y-97798000I-243750J0D01*
G01*
X202780750Y-97798000D01*
G75*
G02*
X202537000Y-97554250I0J243750D01*
G01*
G37*
%TD*%
%TO.C,C5*%
G36*
G01*
X173286250Y-95520000D02*
X172373750Y-95520000D01*
G75*
G02*
X172130000Y-95276250I0J243750D01*
G01*
X172130000Y-94788750D01*
G75*
G02*
X172373750Y-94545000I243750J0D01*
G01*
X173286250Y-94545000D01*
G75*
G02*
X173530000Y-94788750I0J-243750D01*
G01*
X173530000Y-95276250D01*
G75*
G02*
X173286250Y-95520000I-243750J0D01*
G01*
G37*
G36*
G01*
X173286250Y-97395000D02*
X172373750Y-97395000D01*
G75*
G02*
X172130000Y-97151250I0J243750D01*
G01*
X172130000Y-96663750D01*
G75*
G02*
X172373750Y-96420000I243750J0D01*
G01*
X173286250Y-96420000D01*
G75*
G02*
X173530000Y-96663750I0J-243750D01*
G01*
X173530000Y-97151250D01*
G75*
G02*
X173286250Y-97395000I-243750J0D01*
G01*
G37*
%TD*%
%TO.C,C4*%
G36*
G01*
X172843750Y-115190000D02*
X173756250Y-115190000D01*
G75*
G02*
X174000000Y-115433750I0J-243750D01*
G01*
X174000000Y-115921250D01*
G75*
G02*
X173756250Y-116165000I-243750J0D01*
G01*
X172843750Y-116165000D01*
G75*
G02*
X172600000Y-115921250I0J243750D01*
G01*
X172600000Y-115433750D01*
G75*
G02*
X172843750Y-115190000I243750J0D01*
G01*
G37*
G36*
G01*
X172843750Y-113315000D02*
X173756250Y-113315000D01*
G75*
G02*
X174000000Y-113558750I0J-243750D01*
G01*
X174000000Y-114046250D01*
G75*
G02*
X173756250Y-114290000I-243750J0D01*
G01*
X172843750Y-114290000D01*
G75*
G02*
X172600000Y-114046250I0J243750D01*
G01*
X172600000Y-113558750D01*
G75*
G02*
X172843750Y-113315000I243750J0D01*
G01*
G37*
%TD*%
%TO.C,C3*%
G36*
G01*
X202117000Y-142247750D02*
X202117000Y-143160250D01*
G75*
G02*
X201873250Y-143404000I-243750J0D01*
G01*
X201385750Y-143404000D01*
G75*
G02*
X201142000Y-143160250I0J243750D01*
G01*
X201142000Y-142247750D01*
G75*
G02*
X201385750Y-142004000I243750J0D01*
G01*
X201873250Y-142004000D01*
G75*
G02*
X202117000Y-142247750I0J-243750D01*
G01*
G37*
G36*
G01*
X203992000Y-142247750D02*
X203992000Y-143160250D01*
G75*
G02*
X203748250Y-143404000I-243750J0D01*
G01*
X203260750Y-143404000D01*
G75*
G02*
X203017000Y-143160250I0J243750D01*
G01*
X203017000Y-142247750D01*
G75*
G02*
X203260750Y-142004000I243750J0D01*
G01*
X203748250Y-142004000D01*
G75*
G02*
X203992000Y-142247750I0J-243750D01*
G01*
G37*
%TD*%
%TO.C,C2*%
G36*
G01*
X196287000Y-143040250D02*
X196287000Y-142127750D01*
G75*
G02*
X196530750Y-141884000I243750J0D01*
G01*
X197018250Y-141884000D01*
G75*
G02*
X197262000Y-142127750I0J-243750D01*
G01*
X197262000Y-143040250D01*
G75*
G02*
X197018250Y-143284000I-243750J0D01*
G01*
X196530750Y-143284000D01*
G75*
G02*
X196287000Y-143040250I0J243750D01*
G01*
G37*
G36*
G01*
X194412000Y-143040250D02*
X194412000Y-142127750D01*
G75*
G02*
X194655750Y-141884000I243750J0D01*
G01*
X195143250Y-141884000D01*
G75*
G02*
X195387000Y-142127750I0J-243750D01*
G01*
X195387000Y-143040250D01*
G75*
G02*
X195143250Y-143284000I-243750J0D01*
G01*
X194655750Y-143284000D01*
G75*
G02*
X194412000Y-143040250I0J243750D01*
G01*
G37*
%TD*%
%TO.C,C1*%
G36*
G01*
X195140000Y-110693750D02*
X195140000Y-111606250D01*
G75*
G02*
X194896250Y-111850000I-243750J0D01*
G01*
X194408750Y-111850000D01*
G75*
G02*
X194165000Y-111606250I0J243750D01*
G01*
X194165000Y-110693750D01*
G75*
G02*
X194408750Y-110450000I243750J0D01*
G01*
X194896250Y-110450000D01*
G75*
G02*
X195140000Y-110693750I0J-243750D01*
G01*
G37*
G36*
G01*
X197015000Y-110693750D02*
X197015000Y-111606250D01*
G75*
G02*
X196771250Y-111850000I-243750J0D01*
G01*
X196283750Y-111850000D01*
G75*
G02*
X196040000Y-111606250I0J243750D01*
G01*
X196040000Y-110693750D01*
G75*
G02*
X196283750Y-110450000I243750J0D01*
G01*
X196771250Y-110450000D01*
G75*
G02*
X197015000Y-110693750I0J-243750D01*
G01*
G37*
%TD*%
D10*
%TO.C,U3*%
X205060000Y-100700000D03*
X194900000Y-108320000D03*
X205060000Y-103240000D03*
X194900000Y-105780000D03*
X205060000Y-105780000D03*
X194900000Y-103240000D03*
X205060000Y-108320000D03*
D11*
X194900000Y-100700000D03*
%TD*%
D12*
%TO.C,SW2*%
X182412500Y-137430000D03*
X179912500Y-137430000D03*
X177412500Y-137430000D03*
X182412500Y-134130000D03*
X179912500Y-134130000D03*
D13*
X177412500Y-134130000D03*
%TD*%
D14*
%TO.C,J2*%
X175884000Y-100368000D03*
X175884000Y-95288000D03*
X180964000Y-95288000D03*
X180964000Y-100368000D03*
D15*
X178424000Y-97828000D03*
%TD*%
D10*
%TO.C,U1*%
X169640000Y-116090000D03*
X162020000Y-131330000D03*
X169640000Y-118630000D03*
X162020000Y-128790000D03*
X169640000Y-121170000D03*
X162020000Y-126250000D03*
X169640000Y-123710000D03*
X162020000Y-123710000D03*
X169640000Y-126250000D03*
X162020000Y-121170000D03*
X169640000Y-128790000D03*
X162020000Y-118630000D03*
X169640000Y-131330000D03*
D11*
X162020000Y-116090000D03*
%TD*%
D10*
%TO.C,U2*%
X169640000Y-95258000D03*
X162020000Y-110498000D03*
X169640000Y-97798000D03*
X162020000Y-107958000D03*
X169640000Y-100338000D03*
X162020000Y-105418000D03*
X169640000Y-102878000D03*
X162020000Y-102878000D03*
X169640000Y-105418000D03*
X162020000Y-100338000D03*
X169640000Y-107958000D03*
X162020000Y-97798000D03*
X169640000Y-110498000D03*
D11*
X162020000Y-95258000D03*
%TD*%
D10*
%TO.C,U4*%
X204952000Y-132324000D03*
X194792000Y-139944000D03*
X204952000Y-134864000D03*
X194792000Y-137404000D03*
X204952000Y-137404000D03*
X194792000Y-134864000D03*
X204952000Y-139944000D03*
D11*
X194792000Y-132324000D03*
%TD*%
D10*
%TO.C,U5*%
X186142500Y-119630000D03*
X175982500Y-127250000D03*
X186142500Y-122170000D03*
X175982500Y-124710000D03*
X186142500Y-124710000D03*
X175982500Y-122170000D03*
X186142500Y-127250000D03*
D11*
X175982500Y-119630000D03*
%TD*%
D12*
%TO.C,SW3*%
X192510000Y-96060000D03*
X192510000Y-98560000D03*
X192510000Y-101060000D03*
X189210000Y-96060000D03*
X189210000Y-98560000D03*
D13*
X189210000Y-101060000D03*
%TD*%
D16*
%TO.C,SW1*%
X202612000Y-117174000D03*
X197612000Y-117174000D03*
X197612000Y-122174000D03*
X202612000Y-122174000D03*
%TD*%
D17*
%TO.C,RV1*%
X194950000Y-97130000D03*
X197450000Y-94630000D03*
X199950000Y-97130000D03*
%TD*%
D18*
%TO.C,Q3*%
X190762000Y-107402000D03*
D19*
X188222000Y-107402000D03*
X189492000Y-107402000D03*
%TD*%
D18*
%TO.C,Q2*%
X182234000Y-108116000D03*
D19*
X184774000Y-108116000D03*
X183504000Y-108116000D03*
%TD*%
D18*
%TO.C,Q1*%
X178932000Y-107396000D03*
D19*
X176392000Y-107396000D03*
X177662000Y-107396000D03*
%TD*%
D20*
%TO.C,J4*%
X151140000Y-143700000D03*
X153680000Y-143700000D03*
X151140000Y-141160000D03*
X153680000Y-141160000D03*
X151140000Y-138620000D03*
X153680000Y-138620000D03*
X151140000Y-136080000D03*
X153680000Y-136080000D03*
X151140000Y-133540000D03*
X153680000Y-133540000D03*
X151140000Y-131000000D03*
X153680000Y-131000000D03*
X151140000Y-128460000D03*
X153680000Y-128460000D03*
X151140000Y-125920000D03*
X153680000Y-125920000D03*
X151140000Y-123380000D03*
X153680000Y-123380000D03*
X151140000Y-120840000D03*
X153680000Y-120840000D03*
X151140000Y-118300000D03*
X153680000Y-118300000D03*
X151140000Y-115760000D03*
X153680000Y-115760000D03*
X151140000Y-113220000D03*
X153680000Y-113220000D03*
X151140000Y-110680000D03*
X153680000Y-110680000D03*
X151140000Y-108140000D03*
X153680000Y-108140000D03*
X151140000Y-105600000D03*
X153680000Y-105600000D03*
X151140000Y-103060000D03*
X153680000Y-103060000D03*
X151140000Y-100520000D03*
X153680000Y-100520000D03*
X151140000Y-97980000D03*
X153680000Y-97980000D03*
X151140000Y-95440000D03*
D21*
X153680000Y-95440000D03*
%TD*%
D22*
%TO.C,J3*%
X197400000Y-148370000D03*
D23*
X202400000Y-148370000D03*
%TD*%
D20*
%TO.C,J1*%
X185402000Y-103078000D03*
X185402000Y-100538000D03*
X185402000Y-97998000D03*
D21*
X185402000Y-95458000D03*
%TD*%
D24*
%TO.C,F1*%
X184240000Y-146550000D03*
X161640000Y-146550000D03*
%TD*%
D25*
%TO.C,D274*%
X190280000Y-136890000D03*
D26*
X190280000Y-134350000D03*
%TD*%
D25*
%TO.C,D1*%
X168610000Y-136940000D03*
D26*
X171150000Y-136940000D03*
%TD*%
M02*
