M48
; DRILL file {KiCad (5.99.0-2101-geb1ff80d5)} date 11/29/20 13:35:50
; FORMAT={-:-/ absolute / inch / decimal}
; #@! TF.CreationDate,2020-11-29T13:35:50+01:00
; #@! TF.GenerationSoftware,Kicad,Pcbnew,(5.99.0-2101-geb1ff80d5)
; #@! TF.FileFunction,Plated,1,2,PTH
FMAT,2
INCH
T1C0.0118
T2C0.0157
T3C0.0295
T4C0.0315
T5C0.0354
T6C0.0394
T7C0.0433
T8C0.0591
T9C0.0669
T10C0.1063
%
G90
G05
T1
X6.1913Y-3.9575
X6.1921Y-3.8744
X6.272Y-4.0953
X6.272Y-4.9709
X6.2925Y-3.7465
X6.3071Y-4.7705
X6.3072Y-3.9503
X6.3984Y-4.5055
X6.4528Y-4.5008
X6.5016Y-4.198
X6.502Y-4.8705
X6.5323Y-4.6705
X6.5324Y-4.2503
X6.5548Y-4.1503
X6.5555Y-5.1705
X6.5855Y-4.0503
X6.5855Y-4.772
X6.6213Y-3.8503
X6.6213Y-5.0708
X6.8165Y-3.7268
X6.826Y-4.5661
X6.9166Y-5.2666
X7.2583Y-4.5772
X7.3362Y-5.174
X7.4179Y-4.3878
X7.4594Y-5.6122
X7.6642Y-4.3744
X7.7398Y-5.1013
X7.7512Y-5.6102
X7.9386Y-5.6169
X7.9791Y-4.378
X8.0024Y-5.015
X8.0728Y-3.8224
T2
X6.7541Y-4.0352
X6.8043Y-3.8187
X7.083Y-5.1892
X7.376Y-5.5283
X7.376Y-5.6177
X7.4146Y-4.4685
X7.8206Y-4.376
X7.867Y-5.0206
T3
X7.1746Y-4.2565
X7.2246Y-4.2565
X7.2746Y-4.2565
X6.9446Y-4.2282
X6.9946Y-4.2282
X7.0446Y-4.2282
X7.4103Y-4.2284
X7.4603Y-4.2284
X7.5103Y-4.2284
T4
X6.9284Y-4.7098
X6.9284Y-4.8098
X6.9284Y-4.9098
X6.9284Y-5.0098
X7.3284Y-4.7098
X7.3284Y-4.8098
X7.3284Y-4.9098
X7.3284Y-5.0098
X6.3787Y-4.5705
X6.3787Y-4.6705
X6.3787Y-4.7705
X6.3787Y-4.8705
X6.3787Y-4.9705
X6.3787Y-5.0705
X6.3787Y-5.1705
X6.6787Y-4.5705
X6.6787Y-4.6705
X6.6787Y-4.7705
X6.6787Y-4.8705
X6.6787Y-4.9705
X6.6787Y-5.0705
X6.6787Y-5.1705
X7.669Y-5.2096
X7.669Y-5.3096
X7.669Y-5.4096
X7.669Y-5.5096
X8.069Y-5.2096
X8.069Y-5.3096
X8.069Y-5.4096
X8.069Y-5.5096
X7.6732Y-3.9646
X7.6732Y-4.0646
X7.6732Y-4.1646
X7.6732Y-4.2646
X8.0732Y-3.9646
X8.0732Y-4.0646
X8.0732Y-4.1646
X8.0732Y-4.2646
X6.3787Y-3.7503
X6.3787Y-3.8503
X6.3787Y-3.9503
X6.3787Y-4.0503
X6.3787Y-4.1503
X6.3787Y-4.2503
X6.3787Y-4.3503
X6.6787Y-3.7503
X6.6787Y-3.8503
X6.6787Y-3.9503
X6.6787Y-4.0503
X6.6787Y-4.1503
X6.6787Y-4.2503
X6.6787Y-4.3503
T5
X7.4492Y-3.7819
X7.4492Y-3.8803
X7.4492Y-3.9787
X7.5791Y-3.7819
X7.5791Y-3.8803
X7.5791Y-3.9787
X6.9847Y-5.2807
X6.9847Y-5.4106
X7.0832Y-5.2807
X7.0832Y-5.4106
X7.1816Y-5.2807
X7.1816Y-5.4106
X6.6382Y-5.3913
X6.7382Y-5.3913
X7.6752Y-3.824
X7.7736Y-3.7256
X7.872Y-3.824
X7.4913Y-5.2894
X7.4913Y-5.3894
T6
X7.2993Y-3.7582
X7.2993Y-3.8582
X7.2993Y-3.9582
X7.2993Y-4.0582
X5.9504Y-3.7575
X5.9504Y-3.8575
X5.9504Y-3.9575
X5.9504Y-4.0575
X5.9504Y-4.1575
X5.9504Y-4.2575
X5.9504Y-4.3575
X5.9504Y-4.4575
X5.9504Y-4.5575
X5.9504Y-4.6575
X5.9504Y-4.7575
X5.9504Y-4.8575
X5.9504Y-4.9575
X5.9504Y-5.0575
X5.9504Y-5.1575
X5.9504Y-5.2575
X5.9504Y-5.3575
X5.9504Y-5.4575
X5.9504Y-5.5575
X5.9504Y-5.6575
X6.0504Y-3.7575
X6.0504Y-3.8575
X6.0504Y-3.9575
X6.0504Y-4.0575
X6.0504Y-4.1575
X6.0504Y-4.2575
X6.0504Y-4.3575
X6.0504Y-4.4575
X6.0504Y-4.5575
X6.0504Y-4.6575
X6.0504Y-4.7575
X6.0504Y-4.8575
X6.0504Y-4.9575
X6.0504Y-5.0575
X6.0504Y-5.1575
X6.0504Y-5.2575
X6.0504Y-5.3575
X6.0504Y-5.4575
X6.0504Y-5.5575
X6.0504Y-5.6575
T7
X7.78Y-4.6131
X7.78Y-4.81
X7.9769Y-4.6131
X7.9769Y-4.81
T8
X7.0246Y-3.8515
X6.3638Y-5.7697
X7.2535Y-5.7697
T9
X6.9246Y-3.7515
X6.9246Y-3.9515
X7.1246Y-3.7515
X7.1246Y-3.9515
T10
X7.7717Y-5.8413
X7.9685Y-5.8413
T0
M30
